<svg width="28" height="27" viewBox="0 0 28 27" fill="none" xmlns="http://www.w3.org/2000/svg">
<path d="M23.1406 4.49219C20.7383 2.03125 17.457 0.625 13.9414 0.625C6.79297 0.625 0.933594 6.48438 0.933594 13.6328C0.933594 15.9766 1.57812 18.2031 2.69141 20.1367L0.875 26.875L7.73047 25.1172C9.66406 26.1133 11.7734 26.6992 13.9414 26.6992C21.1484 26.6992 27.125 20.8398 27.125 13.6914C27.125 10.1758 25.6016 6.95312 23.1406 4.49219ZM13.9414 24.4727C12.0078 24.4727 10.1328 23.9453 8.43359 22.9492L8.08203 22.7148L3.98047 23.8281L5.09375 19.8438L4.80078 19.4336C3.74609 17.6758 3.16016 15.6836 3.16016 13.6328C3.16016 7.71484 8.02344 2.85156 14 2.85156C16.8711 2.85156 19.5664 3.96484 21.6172 6.01562C23.668 8.06641 24.8984 10.7617 24.8984 13.6914C24.8984 19.6094 19.918 24.4727 13.9414 24.4727ZM19.918 16.3867C19.5664 16.2109 17.9844 15.4492 17.6914 15.332C17.3984 15.2148 17.1641 15.1562 16.9297 15.5078C16.7539 15.8008 16.1094 16.5625 15.9336 16.7969C15.6992 16.9727 15.5234 17.0312 15.2305 16.8555C13.2969 15.918 12.0664 15.1562 10.7773 12.9883C10.4258 12.4023 11.1289 12.4609 11.7148 11.2305C11.832 10.9961 11.7734 10.8203 11.7148 10.6445C11.6562 10.4688 10.9531 8.88672 10.7188 8.24219C10.4258 7.59766 10.1914 7.65625 9.95703 7.65625C9.78125 7.65625 9.54688 7.65625 9.37109 7.65625C9.13672 7.65625 8.78516 7.71484 8.49219 8.06641C8.19922 8.41797 7.37891 9.17969 7.37891 10.7617C7.37891 12.4023 8.49219 13.9258 8.66797 14.1602C8.84375 14.3359 10.9531 17.6172 14.2344 19.0234C16.2852 19.9609 17.1055 20.0195 18.1602 19.8438C18.7461 19.7852 20.0352 19.082 20.3281 18.3203C20.6211 17.5586 20.6211 16.9141 20.5039 16.7969C20.4453 16.6211 20.2109 16.5625 19.918 16.3867Z" fill="white"/>
</svg>
