<svg width="100" height="100" viewBox="0 0 100 100" fill="none" xmlns="http://www.w3.org/2000/svg">
<path d="M99.3916 18.9595L95.3304 10.8712C94.8027 9.81972 93.744 9.16673 92.5677 9.16673H55.5315V3.02058C55.5315 1.35495 54.1765 0 52.5111 0H44.1467C42.4812 0 41.1261 1.35495 41.1261 3.02058V9.16673H30.5911C29.7826 9.16673 29.1275 9.82206 29.1275 10.6304C29.1275 11.4387 29.7826 12.094 30.5911 12.094H92.5677C92.6301 12.094 92.6861 12.1286 92.7144 12.1846L96.7757 20.2731C96.799 20.3193 96.799 20.3744 96.7759 20.4206L92.7142 28.5093C92.6861 28.5652 92.6301 28.5997 92.5677 28.5997H7.59661C7.53534 28.5997 7.47913 28.5659 7.45103 28.5115L3.22694 20.4226C3.20216 20.3752 3.20216 20.3184 3.22714 20.2708L7.45084 12.1824C7.47933 12.1278 7.53534 12.094 7.59661 12.094H24.3534C25.162 12.094 25.8171 11.4387 25.8171 10.6304C25.8171 9.82206 25.162 9.16673 24.3534 9.16673H7.59661C6.44131 9.16673 5.39119 9.80293 4.85608 10.8273L0.632575 18.9156C0.164402 19.8118 0.164597 20.882 0.63238 21.7779L4.85647 29.8668C5.39138 30.891 6.4415 31.527 7.59681 31.527H41.1263V39.8284L18.5685 41.9173C17.9157 41.9778 17.3193 42.3461 16.9733 42.9019L12.4563 50.151C11.9407 50.9783 12.0566 52.0429 12.7379 52.7403L18.7092 58.8479C19.1066 59.2542 19.6571 59.4819 20.2211 59.4819C20.3065 59.4819 20.3928 59.4766 20.4787 59.4659L41.1259 56.8815V66.252L20.2558 65.1232C20.2556 65.1232 20.2556 65.1232 20.2556 65.1232C19.1713 65.0648 18.244 65.8919 18.1685 66.9664L17.5258 76.1164C17.4507 77.1907 18.2623 78.1399 19.3351 78.2326L41.1259 80.1156V98.5363C41.1259 99.3447 41.781 100 42.5895 100C43.398 100 44.0532 99.3447 44.0532 98.5363V80.3686L52.604 81.1074V86.0317C52.604 86.84 53.2591 87.4954 54.0677 87.4954C54.8762 87.4954 55.5313 86.84 55.5313 86.0317V81.3603L71.6752 82.7553C71.7312 82.7602 71.787 82.7625 71.843 82.7625C72.3998 82.7625 72.9411 82.5254 73.3172 82.1099L77.9521 76.991C78.5676 76.3109 78.6386 75.3053 78.1238 74.5452L74.2498 68.8286C73.904 68.3182 73.3299 67.9937 72.714 67.9601L55.5313 67.0308V55.0781L84.9559 51.3951C86.0911 51.2531 86.9141 50.2121 86.7902 49.0746L85.5624 37.7963C85.4385 36.6587 84.4089 35.8188 83.2719 35.9248L67.6423 37.3722C66.8373 37.4468 66.2454 38.1597 66.32 38.9647C66.3945 39.7697 67.1074 40.36 67.9122 40.2872L82.7397 38.9139L83.793 48.5904L20.5181 56.5103L15.2808 51.1535L19.243 44.7949L42.7392 42.6189H42.7396L61.6995 40.8631C62.5045 40.7886 63.0964 40.0757 63.0219 39.2707C62.9473 38.4657 62.235 37.874 61.4296 37.9481L55.5315 38.4944V31.527H92.5675C93.7439 31.527 94.8026 30.874 95.3301 29.8227L99.3918 21.734C99.8279 20.8654 99.8279 19.8283 99.3916 18.9595ZM44.0534 3.02058C44.0534 2.96906 44.0951 2.9273 44.1467 2.9273H52.5111C52.5626 2.9273 52.6044 2.96906 52.6044 3.02058V9.16673H44.0536V3.02058H44.0534ZM75.2855 75.575L71.4611 79.7991L54.2177 78.3091C54.2175 78.3091 54.2173 78.3091 54.2171 78.3091L20.5109 75.3964L21.0235 68.0967L72.0891 70.8584L75.2855 75.575ZM52.6042 66.8727L44.0534 66.4102V56.515L52.6042 55.4448V66.8727ZM52.6042 38.7654L44.0534 39.5574V31.527H52.6042V38.7654Z" fill="#235032"/>
</svg>
