<svg width="100" height="100" viewBox="0 0 100 100" fill="none" xmlns="http://www.w3.org/2000/svg">
<path d="M59.1852 12.0269C58.1348 11.774 57.0815 12.4195 56.8288 13.4679C56.576 14.5166 57.2212 15.5716 58.2698 15.8244C74.1002 19.6406 85.1562 33.694 85.1562 49.9998C85.1562 69.3849 69.3854 85.1559 50.0001 85.1559C30.6148 85.1559 14.844 69.3849 14.844 49.9998C14.844 33.6946 25.8994 19.6411 41.729 15.8246C42.7777 15.5716 43.4228 14.5166 43.17 13.4681C42.9171 12.4195 41.8616 11.7748 40.8136 12.0271C32.4386 14.0464 24.851 18.8876 19.4485 25.6589C13.8807 32.6372 10.9377 41.0541 10.9377 49.9998C10.9377 71.5388 28.4611 89.0622 50.0001 89.0622C71.5391 89.0622 89.0624 71.539 89.0624 49.9998C89.0624 41.054 86.1195 32.6368 80.5513 25.6583C75.1486 18.8872 67.5606 14.0461 59.1852 12.0269Z" fill="#235032"/>
<path d="M98.8226 45.3022L96.5377 41.0391L96.9187 35.7688C97.2851 32.3907 95.9377 29.0938 93.3096 26.9438L89.5166 23.838L88.0246 19.3435C87.1891 15.907 84.5791 13.1449 81.1928 12.122L76.511 10.7076L72.9255 6.56306C70.804 4.06756 67.5929 2.76952 64.3353 3.08964L59.4759 3.57381L54.6992 1.17753C51.7555 -0.391795 48.2457 -0.393163 45.3016 1.17734L41.0387 3.4621L35.7686 3.08085C32.3891 2.71444 29.0934 4.06209 26.9436 6.69001L23.8376 10.483L19.3433 11.975C15.9066 12.8105 13.1445 15.4204 12.1216 18.8066L10.7074 23.4884L6.56286 27.0741C4.06756 29.1956 2.76874 32.4061 3.08925 35.6643L3.57342 40.5237L1.17714 45.3004C-0.392381 48.2443 -0.393553 51.7539 1.17675 54.6982L3.4617 58.9611L3.08046 64.2314C2.71425 67.6095 4.0617 70.9062 6.68962 73.0564L10.4826 76.1622L11.9746 80.6567C12.8099 84.0932 15.4199 86.8553 18.8064 87.8782L23.488 89.2924L27.0737 93.4371C29.1954 95.9324 32.4051 97.2313 35.6639 96.9106L40.5231 96.4264L45.2994 98.8223C46.7719 99.6074 48.3859 100 50 100C51.6129 100 53.2258 99.608 54.6974 98.8231L58.9605 96.5383L64.2306 96.9195C67.6085 97.2852 70.9054 95.9383 73.0558 93.3104L76.1616 89.5174L80.6563 88.0256C84.0926 87.1901 86.8545 84.5801 87.8774 81.1938L89.2918 76.5122L93.4365 72.9265C95.9318 70.805 97.2307 67.5945 96.9101 64.3361L96.4258 59.4771L98.8219 54.7004C100.391 51.7562 100.393 48.2465 98.8226 45.3022ZM95.3666 52.8775C95.358 52.8935 95.3496 52.9096 95.3416 52.9256L92.6803 58.2312C92.5145 58.5617 92.4459 58.9326 92.4824 59.3007L93.0229 64.7206C93.2178 66.7025 92.4266 68.6575 90.8936 69.9611L86.308 73.9282C86.0284 74.1702 85.8233 74.4864 85.7165 74.8403L84.1381 80.0639C83.509 82.1467 81.7999 83.7481 79.6778 84.2428C79.6198 84.2563 79.5624 84.2725 79.5059 84.2913L74.3938 85.9879C74.0429 86.1045 73.7321 86.3182 73.4979 86.6043L70.0331 90.836C68.7171 92.4446 66.6954 93.266 64.6267 93.0332C64.6009 93.0303 64.5749 93.028 64.5493 93.026L58.6779 92.6014C58.3082 92.5748 57.9402 92.6533 57.6144 92.8279L52.8558 95.3783C51.0613 96.3354 48.918 96.3315 47.1221 95.3672C47.1061 95.3588 47.09 95.3504 47.074 95.3424L41.7686 92.6811C41.4959 92.5444 41.1959 92.4737 40.8928 92.4737C40.8284 92.4737 40.7637 92.4768 40.6991 92.4832L35.2792 93.0233C33.2975 93.219 31.3423 92.427 30.0387 90.8942L26.0716 86.3086C25.8298 86.029 25.5134 85.8237 25.1593 85.7169L19.9357 84.1389C17.8527 83.5098 16.2515 81.8007 15.7568 79.6784C15.7433 79.6204 15.7271 79.5632 15.7083 79.5065L14.0117 74.3942C13.8953 74.0433 13.6816 73.7327 13.3955 73.4985L9.16403 70.0335C7.55544 68.7175 6.73396 66.6964 6.96677 64.6273C6.9697 64.6015 6.97204 64.5757 6.974 64.5497L7.3986 58.6781C7.42536 58.3093 7.34665 57.9406 7.17204 57.6146L4.62147 52.8564C3.66444 51.0619 3.66854 48.9186 4.6324 47.1227C4.641 47.1068 4.6492 47.0908 4.65721 47.0748L7.31852 41.7692C7.48434 41.4387 7.5529 41.0678 7.51618 40.6998L6.97614 35.2795C6.78122 33.2977 7.57243 31.3426 9.10543 30.0391L13.691 26.072C13.9706 25.83 14.1757 25.5138 14.2828 25.1599L15.8609 19.9361C16.49 17.8532 18.1991 16.2521 20.3214 15.7572C20.3794 15.7437 20.4366 15.7275 20.4933 15.7087L25.6052 14.0119C25.9561 13.8955 26.2667 13.6818 26.5009 13.3956L29.9661 9.16403C31.2821 7.55563 33.3038 6.73454 35.3723 6.96696C35.3981 6.96989 35.4239 6.97224 35.4497 6.97419L41.3211 7.3988C41.6889 7.42497 42.0586 7.34685 42.3846 7.17224L47.143 4.62186C48.9373 3.66483 51.0808 3.66874 52.8765 4.63279C52.8924 4.64119 52.9084 4.64959 52.9246 4.6576L58.2302 7.31892C58.5607 7.48474 58.9316 7.55349 59.2996 7.51657L64.7197 6.97653C66.7013 6.78122 68.6566 7.57282 69.9601 9.10582L73.9272 13.6914C74.169 13.971 74.4854 14.1761 74.8395 14.2831L80.0631 15.8613C82.146 16.4904 83.7471 18.1997 84.242 20.3218C84.2555 20.3798 84.2717 20.437 84.2905 20.4937L85.9873 25.6056C86.104 25.9565 86.3174 26.2671 86.6036 26.5013L90.8352 29.9663C92.4438 31.2823 93.2651 33.3032 93.0322 35.3725C93.0293 35.3983 93.027 35.4241 93.0252 35.4501L92.6006 41.3217C92.5738 41.6905 92.6526 42.0592 92.827 42.3852L95.3775 47.1436C96.3348 48.9385 96.3307 51.0818 95.3666 52.8775Z" fill="#235032"/>
<path d="M41.5238 39.3585C41.2105 38.6984 40.5396 38.2407 39.7604 38.2407H29.4407C28.362 38.2407 27.4875 39.1152 27.4875 40.1939V69.7574C27.4875 70.8361 28.362 71.7105 29.4407 71.7105H39.7604C40.5699 71.7105 41.2643 71.2182 41.5603 70.5164C43.0492 70.7254 44.583 71.1488 46.1799 71.591C48.5806 72.2556 51.0628 72.9429 53.6419 72.9429H64.9171C68.4026 72.9429 71.227 71.0951 72.4725 67.9996C73.0792 66.4914 73.1854 64.9262 72.8309 63.6158C73.4794 63.0328 74.0274 62.3071 74.4419 61.4596C75.2819 59.7424 75.4497 57.8114 74.9735 56.185C75.861 55.3276 76.5231 54.1954 76.8692 52.8604C77.1928 51.6124 77.1872 50.3809 76.8993 49.3139C78.661 48.2776 79.8475 46.3948 79.8475 44.2733C79.8475 42.6095 79.1996 41.0763 78.0231 39.9564C76.8934 38.881 75.3887 38.2886 73.7864 38.2886L57.8937 38.289C56.6863 36.7743 56.3105 34.7189 56.998 33.0644C58.4089 29.6687 58.3214 26.7943 56.715 23.7447C55.5224 21.4812 52.3158 19.2277 49.6207 19.6125C47.9916 19.8453 46.8129 20.9967 46.4672 22.6928C46.3654 23.1918 46.3375 23.7308 46.3052 24.3551C46.2256 25.8949 46.1162 28.0039 44.7869 30.5505C43.8859 32.2769 43.5853 34.0525 43.3201 35.6191C42.9402 37.8632 42.756 38.9443 41.5238 39.3585ZM31.3938 42.147H37.8072V67.8043H31.3938V42.147ZM47.1716 36.271C47.3992 34.9271 47.6343 33.5372 48.25 32.3582C49.9732 29.0566 50.1191 26.24 50.2064 24.5572C50.2296 24.109 50.2515 23.6855 50.2949 23.4726C50.2951 23.4713 50.2955 23.4697 50.2959 23.4683C50.9734 23.4777 52.6408 24.3924 53.2589 25.5658C54.3288 27.5963 54.3644 29.2226 53.391 31.566C52.513 33.6788 52.5791 36.1306 53.4474 38.3105C52.4972 38.4427 51.7652 39.2562 51.7652 40.2427C51.7652 41.3212 52.6398 42.1958 53.7183 42.1958L73.7864 42.1952C74.3815 42.1952 74.9297 42.405 75.3297 42.7858C75.6088 43.0513 75.9413 43.5251 75.9413 44.2735C75.9413 45.3212 74.9809 46.227 73.844 46.2518L68.8169 46.3612C67.7386 46.3847 66.8833 47.2778 66.9067 48.3563C66.93 49.4204 67.7995 50.2671 68.8587 50.2671C68.8729 50.2671 68.8874 50.2671 68.902 50.2667L73.0887 50.1757C73.2253 50.5626 73.2963 51.3007 73.0089 52.1462C72.7641 52.8653 72.1073 54.0715 70.455 54.0715C69.3764 54.0715 68.5018 54.9459 68.5018 56.0247C68.5018 57.1034 69.3764 57.9778 70.455 57.9778C70.751 57.9778 71.0417 57.9594 71.326 57.9233C71.3503 58.476 71.2366 59.1235 70.9333 59.7434C70.5747 60.4762 69.8659 61.35 68.5257 61.35C67.4472 61.35 66.5725 62.2244 66.5725 63.3031C66.5725 64.3819 67.4472 65.2563 68.5257 65.2563C68.7278 65.2563 68.9278 65.2473 69.1253 65.2295C69.1202 65.6043 69.044 66.0729 68.8309 66.5854C68.5247 67.3225 67.53 69.0367 64.9175 69.0367H53.6423C51.5941 69.0367 49.4707 68.4488 47.2226 67.8264C45.4338 67.3311 43.5996 66.8236 41.7139 66.5971V43.3114C46.1111 42.5146 46.7174 38.9548 47.1716 36.271Z" fill="#235032"/>
<path d="M50.0003 14.844C51.0791 14.844 51.9535 13.9696 51.9535 12.8909C51.9535 11.8122 51.0791 10.9377 50.0003 10.9377H49.999C48.9203 10.9377 48.0466 11.8122 48.0466 12.8909C48.0466 13.9696 48.9216 14.844 50.0003 14.844Z" fill="#235032"/>
</svg>
