<?xml version="1.0" encoding="utf-8"?>
<!-- Generator: Adobe Illustrator 16.0.3, SVG Export Plug-In . SVG Version: 6.00 Build 0)  -->
<!DOCTYPE svg PUBLIC "-//W3C//DTD SVG 1.1//EN" "http://www.w3.org/Graphics/SVG/1.1/DTD/svg11.dtd">
<svg version="1.1" id="Capa_1" xmlns="http://www.w3.org/2000/svg" xmlns:xlink="http://www.w3.org/1999/xlink" x="0px" y="0px"
	 width="1440px" height="540.5px" viewBox="0 0 1440 540.5" enable-background="new 0 0 1440 540.5" xml:space="preserve">
<path fill="#235032" fill-opacity="0.8" d="M1506,0c0,241.525-649.115,137.132-869.604,263.021C415.906,388.912-96,241.525-96,0
	C1425.25,0,524.237,0,966.617,0C1409,0,1410.72,0,1506,0z"/>
<g>
	<g>
		<g>
			<defs>
				
					<rect id="SVGID_1_" x="880.37" y="277.943" transform="matrix(0.5034 -0.8641 0.8641 0.5034 172.1125 1234.3582)" width="559.023" height="379.015"/>
			</defs>
			<clipPath id="SVGID_2_">
				<use xlink:href="#SVGID_1_"  overflow="visible"/>
			</clipPath>
			<g clip-path="url(#SVGID_2_)">
				<path fill="#791113" d="M989.463,469.792c-4.647,16.813-3.334,36.016-1.781,51.02c0.703,2.579,3.767,1.109,4.083-1.959
					c-0.068-8.717,0.333-18.242,1.285-27.449c0.558-7.268,2.135-15.024,1.672-21.802C993.94,465.893,990.33,467.043,989.463,469.792
					z"/>
				<path fill="#791113" d="M1011.135,385.894c-9.04,14.255-13.688,31.067-17.941,45.942c-0.866,2.749,1.802,3.219,3.218,0.789
					c5.272-15.364,12.195-29.769,19.666-43.854C1017.886,384.404,1013.494,381.844,1011.135,385.894z"/>
				<path fill="#791113" d="M1060.856,342.197c-5.651,2.129-12.248,5.879-17.823,9.138c-4.556,2.77-4.093,9.546,0.541,7.907
					c5.104-2.451,10.756-4.58,16.407-6.709c5.653-2.131,12.952-3.299,19-7.369c2.513-1.789,2.753-5.987,0.084-6.457
					C1074.676,336.148,1066.981,339.258,1060.856,342.197z"/>
				<path fill="#791113" d="M1099.465,344.084c-2.196-1.28-5.497,4.387-3.301,5.666c5.018,4.008,9.015,8.506,13.561,13.324
					c3.997,4.498,6.579,11.426,12.068,14.623c2.746,1.601,7.146-3.429,5.346-6.648
					C1122.051,358.324,1109.818,349.031,1099.465,344.084z"/>
				<path fill="#791113" d="M1134.627,411.203c1.484,6.289,2.969,12.576,4.453,18.865c1.957,5.476,2.496,13.383,6.416,16.752
					c2.196,1.279,4.633-1.64,5.498-4.389c1.655-6.628-1.871-11.937-3.748-16.283c-2.035-6.607-5.088-12.726-7.121-19.332
					C1138.324,403.596,1133.847,407.496,1134.627,411.203z"/>
				<path fill="#791113" d="M1162.783,499.188c-4.701-7.078-7.438-16.264-9.154-25.939c0.396-1.938-2.666-0.471-2.512,1.789
					c0.146,9.847,1.234,18.072,3.346,25.811c2.111,7.734,5.474,18.372,12.455,20.271"/>
				<path fill="#791113" d="M1333.535,437.068c-1.106,6.947-0.644,13.725-1.672,21.801c-1.106,6.947-3.783,14.066-7.007,20.863
					c-1.813,4.369,2.031,6.608,4.392,2.559c9.041-14.256,16.597-34.797,11.979-48.332
					C1340.371,429.119,1334.795,432.381,1333.535,437.068z"/>
				<path fill="#791113" d="M1319.937,384.679c1.004,14.685,2.087,30.497,6.623,42.902c1.332,4.029,6.278-0.68,5.498-4.389
					c-2.496-13.385,0.506-31.158-5.054-43.074C1324.731,377.713,1319.627,380.162,1319.937,384.679z"/>
				<path fill="#791113" d="M1355.867,324.271c-4.711,0.51-10.681,5.707-15.158,9.605c-4.948,4.709-9.271,10.866-13.043,17.345
					c-2.359,4.05,1.482,6.287,3.842,2.238c3.302-5.668,7.23-9.887,11.708-13.785c4.007-3.09,8.639-4.729,12.643-7.817
					C1359.391,329.578,1359.004,323.932,1355.867,324.271z"/>
				<path fill="#791113" d="M1405.58,288.162c-19.231,3.98-37.75,2.951-56.586,4.992c-8.869,1.34-10.929,17.494-2.531,16.963
					c15.225-0.891,30.529-0.651,46.619-4.291c-3.695,7.607-7.394,15.215-11.562,23.631c-1.338,3.561-4.641,9.229-3.858,12.938
					l0.078,1.128c0,0-0.473,0.809,0.077,1.129c0.153,2.26,3.293,1.92,4.236,0.301c1.021-0.49,1.492-1.301,2.437-2.92
					c2.906-3.73,4.717-8.098,7.549-12.955c5.582-10.846,10.692-20.883,17.375-31.09
					C1412.793,293.449,1410.289,287.652,1405.58,288.162z"/>
				<path fill="#791113" d="M1315.961,496.395c-4.174,2.854-7.166,6.751-11.343,9.605c-5.091,3.055-10.317,5.486-16.729,6.875
					c-4.58,0.993-3.639,5.339,0.941,4.347c7.327-1.586,14.52-3.794,20.526-7.045c5.092-3.056,11.88-7.125,13.819-11.447
					C1324.471,495.851,1319.221,493.738,1315.961,496.395z"/>
				<path fill="#791113" d="M1211.161,530.076c-5.05-0.268-9.793,1.015-14.846,0.746c-5.899-0.665-11.53-1.905-17.466-4.696
					c-4.241-1.992-6.133,2.031-1.891,4.025c6.784,3.189,13.839,5.802,20.586,6.868c5.899,0.665,13.765,1.553,17.932-0.705
					C1218.25,534.812,1215.362,529.946,1211.161,530.076z"/>
				<path fill="#791113" d="M1275.319,519.553c-15.043,5.282-30.32,9.975-46.301,12.892c-2.613,1.037-2.548,3.745,0.3,3.3
					c15.344-1.983,32.662-4.066,48.108-10.875C1281.783,523.142,1279.908,518.419,1275.319,519.553z"/>
			</g>
		</g>
	</g>
</g>
</svg>
