<?xml version="1.0" encoding="utf-8"?>
<!-- Generator: Adobe Illustrator 16.0.3, SVG Export Plug-In . SVG Version: 6.00 Build 0)  -->
<!DOCTYPE svg PUBLIC "-//W3C//DTD SVG 1.1//EN" "http://www.w3.org/Graphics/SVG/1.1/DTD/svg11.dtd">
<svg version="1.1" id="Capa_1" xmlns="http://www.w3.org/2000/svg" xmlns:xlink="http://www.w3.org/1999/xlink" x="0px" y="0px"
	 width="973px" height="270px" viewBox="0 0 973 270" enable-background="new 0 0 973 270" xml:space="preserve">
<g>
	<defs>
		
			<rect id="SVGID_1_" x="54.693" y="-29.116" transform="matrix(-0.0281 -0.9996 0.9996 -0.0281 37.1582 312.8964)" width="232" height="334.999"/>
	</defs>
	<clipPath id="SVGID_2_">
		<use xlink:href="#SVGID_1_"  overflow="visible"/>
	</clipPath>
	<g clip-path="url(#SVGID_2_)">
		<path fill="#1C4F92" d="M320.092,135.786c5.426-0.571,10.84-1.561,15.639-2.953c4.194-1.374,2.24-6.344-2.569-5.371
			c-6.019,1.006-12.048,1.594-18.09,1.764c-4.834,0.136-9.087-0.582-12.653,1.612c-2.382,1.323-2.323,3.415,0.129,4.603
			C307.451,137.816,314.062,136.374,320.092,135.786z"/>
		<path fill="#1C4F92" d="M280.062,131.466c-4.275-1.555-7.913-1.871-12.166-2.589c-4.253-0.718-7.273-0.633-11.468,0.741
			c-2.393,0.904-2.311,3.833,0.129,4.602c1.837,0.786,3.045,0.752,4.869,1.119c1.826,0.368,3.626-0.102,5.439-0.153
			c3.637,0.318,6.669,0.651,10.316,1.386C281.435,137.291,283.735,133.038,280.062,131.466z"/>
		<path fill="#1C4F92" d="M213.066,135.861c3.021-0.086,6.029-0.588,9.052-0.673c4.834-0.136,4.704-4.738-0.142-5.021
			c-3.625,0.102-6.657-0.232-10.282-0.13s-6.055-0.248-9.028,1.51c-1.777,1.306-1.718,3.399,0.118,4.186
			C206.468,137.723,209.465,136.8,213.066,135.861z"/>
		<path fill="#1C4F92" d="M177.895,132.244c-6.729-2.743-15.234-4.179-22.438-2.301c-3.603,0.938-3.496,4.704,0.153,5.439
			c6.681,1.069,13.304,0.045,19.997,1.532C179.256,137.648,181.555,133.397,177.895,132.244z"/>
		<path fill="#1C4F92" d="M112.712,136.588c4.229-0.119,7.854-0.221,12.072-0.758c3.612-0.521,3.496-4.705-0.142-5.021
			c-4.24-0.3-9.074-0.164-13.304-0.045c-4.834,0.136-9.69-0.565-13.246,2.047c-1.184,0.871-1.137,2.544,0.095,3.347
			C102.487,138.55,107.902,137.561,112.712,136.588z"/>
		<path fill="#1C4F92" d="M52.861,137.014c4.798-1.392,10.248-1.125,15.674-1.697c3.009-0.504,2.902-4.27-0.13-4.603
			c-4.846-0.283-10.888-0.113-15.744-0.814c-3.044-0.752-6.623,1.024-6.552,3.534C46.18,135.945,49.852,137.518,52.861,137.014z"/>
		<path fill="#1C4F92" d="M33.828,150.768c-7.925-6.44-16.546-11.414-22.653-18.774c7.944-6.017,17.402-10.628,25.345-16.645
			c2.892-2.109-1.636-5.748-4.519-3.349c-8.664,6.616-18.851,11.538-27.892,17.875c-1.449,0.91-1.408,2.358-0.64,3.495
			c6.148,8.809,15.563,15.785,24.961,22.186C32.188,158.055,37.602,153.848,33.828,150.768z"/>
	</g>
</g>
<g>
	<defs>
		
			<rect id="SVGID_3_" x="374.792" y="-30.108" transform="matrix(-0.0281 -0.9996 0.9996 -0.0281 367.2413 631.8499)" width="231.999" height="335"/>
	</defs>
	<clipPath id="SVGID_4_">
		<use xlink:href="#SVGID_3_"  overflow="visible"/>
	</clipPath>
	<g clip-path="url(#SVGID_4_)">
		<path fill="#1C4F92" d="M640.191,134.794c5.426-0.571,10.84-1.561,15.638-2.953c4.194-1.374,2.241-6.344-2.569-5.371
			c-6.019,1.006-12.048,1.594-18.09,1.764c-4.835,0.136-9.087-0.582-12.654,1.612c-2.381,1.323-2.322,3.415,0.129,4.603
			C627.55,136.824,634.161,135.382,640.191,134.794z"/>
		<path fill="#1C4F92" d="M600.161,130.474c-4.276-1.555-7.913-1.871-12.166-2.589c-4.253-0.718-7.274-0.633-11.468,0.741
			c-2.394,0.905-2.312,3.834,0.129,4.602c1.836,0.786,3.045,0.752,4.869,1.119c1.824,0.368,3.626-0.102,5.438-0.153
			c3.637,0.318,6.668,0.651,10.317,1.386C601.534,136.299,603.833,132.046,600.161,130.474z"/>
		<path fill="#1C4F92" d="M533.165,134.87c3.021-0.085,6.03-0.589,9.052-0.673c4.833-0.136,4.704-4.739-0.141-5.022
			c-3.626,0.102-6.658-0.231-10.283-0.129c-3.626,0.101-6.054-0.249-9.028,1.51c-1.776,1.306-1.719,3.398,0.118,4.184
			C526.566,136.73,529.564,135.809,533.165,134.87z"/>
		<path fill="#1C4F92" d="M497.994,131.252c-6.729-2.743-15.235-4.179-22.439-2.301c-3.601,0.939-3.495,4.704,0.153,5.439
			c6.682,1.069,13.304,0.045,19.998,1.532C499.354,136.656,501.653,132.405,497.994,131.252z"/>
		<path fill="#1C4F92" d="M432.81,135.596c4.23-0.119,7.855-0.221,12.072-0.758c3.614-0.52,3.496-4.705-0.141-5.021
			c-4.241-0.3-9.074-0.164-13.305-0.045c-4.833,0.136-9.689-0.565-13.244,2.047c-1.186,0.871-1.139,2.545,0.094,3.347
			C422.586,137.559,428,136.568,432.81,135.596z"/>
		<path fill="#1C4F92" d="M372.96,136.021c4.798-1.392,10.247-1.125,15.673-1.696c3.01-0.504,2.904-4.27-0.129-4.603
			c-4.845-0.283-10.887-0.113-15.744-0.814c-3.045-0.752-6.623,1.024-6.552,3.534C366.278,134.953,369.95,136.525,372.96,136.021z"
			/>
	</g>
</g>
<g>
	<defs>
		
			<rect id="SVGID_5_" x="685.724" y="-36.845" transform="matrix(-0.0281 -0.9996 0.9996 -0.0281 693.6435 935.7332)" width="232" height="335"/>
	</defs>
	<clipPath id="SVGID_6_">
		<use xlink:href="#SVGID_5_"  overflow="visible"/>
	</clipPath>
	<g clip-path="url(#SVGID_6_)">
		<path fill="#1C4F92" d="M951.124,128.057c5.426-0.571,10.84-1.561,15.639-2.953c4.193-1.374,2.24-6.344-2.57-5.371
			c-6.019,1.006-12.047,1.595-18.09,1.764c-4.834,0.136-9.087-0.582-12.653,1.612c-2.382,1.324-2.322,3.416,0.129,4.603
			C938.482,130.087,945.094,128.645,951.124,128.057z"/>
		<path fill="#1C4F92" d="M911.094,123.737c-4.276-1.554-7.913-1.871-12.166-2.589s-7.273-0.633-11.468,0.741
			c-2.394,0.905-2.311,3.834,0.129,4.603c1.837,0.785,3.045,0.751,4.869,1.118c1.825,0.368,3.626-0.101,5.438-0.152
			c3.638,0.317,6.669,0.65,10.317,1.385C912.467,129.562,914.767,125.309,911.094,123.737z"/>
		<path fill="#1C4F92" d="M844.098,128.133c3.022-0.085,6.03-0.588,9.052-0.673c4.834-0.136,4.704-4.739-0.141-5.021
			c-3.625,0.101-6.658-0.232-10.283-0.13s-6.054-0.249-9.028,1.51c-1.776,1.306-1.718,3.398,0.118,4.184
			C837.5,129.994,840.497,129.072,844.098,128.133z"/>
		<path fill="#1C4F92" d="M808.927,124.515c-6.729-2.742-15.235-4.178-22.438-2.301c-3.602,0.939-3.495,4.705,0.153,5.44
			c6.681,1.068,13.304,0.044,19.997,1.531C810.288,129.92,812.587,125.668,808.927,124.515z"/>
		<path fill="#1C4F92" d="M743.744,128.859c4.229-0.119,7.854-0.221,12.071-0.758c3.613-0.52,3.496-4.705-0.141-5.021
			c-4.241-0.3-9.075-0.164-13.304-0.045c-4.834,0.136-9.691-0.565-13.246,2.047c-1.186,0.871-1.139,2.545,0.094,3.348
			C733.519,130.821,738.934,129.832,743.744,128.859z"/>
		<path fill="#1C4F92" d="M683.893,129.285c4.798-1.392,10.248-1.126,15.674-1.697c3.01-0.503,2.903-4.269-0.13-4.603
			c-4.845-0.282-10.887-0.113-15.744-0.814c-3.044-0.752-6.623,1.024-6.552,3.534C677.212,128.216,680.884,129.788,683.893,129.285z
			"/>
	</g>
</g>
</svg>
