<?xml version="1.0" encoding="utf-8"?>
<!-- Generator: Adobe Illustrator 16.0.3, SVG Export Plug-In . SVG Version: 6.00 Build 0)  -->
<!DOCTYPE svg PUBLIC "-//W3C//DTD SVG 1.1//EN" "http://www.w3.org/Graphics/SVG/1.1/DTD/svg11.dtd">
<svg version="1.1" id="Capa_1" xmlns="http://www.w3.org/2000/svg" xmlns:xlink="http://www.w3.org/1999/xlink" x="0px" y="0px"
	 width="674.997px" height="49.538px" viewBox="-369.997 -20.5 674.997 49.538"
	 enable-background="new -369.997 -20.5 674.997 49.538" xml:space="preserve">
<path fill="#235032" d="M268.207,15.716c-2.542-1.438-2.576-3.89-0.073-5.396c3.75-2.504,8.177-1.583,13.224-1.652
	c6.307-0.085,12.604-0.662,18.896-1.729c5.031-1.05,7.003,4.811,2.609,6.342c-5.025,1.543-10.688,2.601-16.356,3.168
	C280.208,17.025,273.292,18.592,268.207,15.716z"/>
<path fill="#235032" d="M241.729,16.566c-3.797-0.93-6.955-1.379-10.746-1.818c-1.892,0.025-3.775,0.543-5.676,0.078
	c-1.897-0.465-3.16-0.448-5.063-1.402c-2.536-0.947-2.582-4.381-0.073-5.397c4.395-1.531,7.547-1.574,11.975-0.653
	s8.219,1.36,12.658,3.263C248.611,12.547,246.156,17.488,241.729,16.566z"/>
<path fill="#235032" d="M164.119,14.186c-1.905-0.955-1.938-3.408-0.066-4.905c3.127-2.005,5.655-1.549,9.439-1.6
	c3.783-0.051,6.943,0.396,10.726,0.345c5.052,0.422,5.125,5.82,0.08,5.887c-3.153,0.043-6.299,0.575-9.452,0.618
	C171.076,15.563,167.936,16.588,164.119,14.186z"/>
<path fill="#235032" d="M135.75,15.063c-6.963-1.869-13.887-0.793-20.843-2.17c-3.797-0.931-3.857-5.346-0.087-6.377
	c7.541-2.065,16.396-0.223,23.38,3.117C142.002,11.052,139.547,15.992,135.75,15.063z"/>
<path fill="#235032" d="M54.987,12.725c-1.274-0.963-1.301-2.926-0.053-3.925c3.744-2.995,8.802-2.082,13.846-2.15
	c4.415-0.06,9.459-0.128,13.88,0.302c3.79,0.439,3.857,5.346,0.08,5.887c-4.408,0.552-8.191,0.603-12.605,0.662
	C65.104,14.55,59.441,15.607,54.987,12.725z"/>
<path fill="#235032" d="M0.69,8.556C0.65,5.612,4.407,3.598,7.573,4.537c5.058,0.913,11.364,0.827,16.416,1.249
	c3.16,0.448,3.219,4.863,0.073,5.396c-5.669,0.568-11.351,0.154-16.375,1.695C4.54,13.41,0.73,11.499,0.69,8.556z"/>
<g>
	<g>
		<g>
			<defs>
				
					<rect id="SVGID_1_" x="-222.45" y="-176.308" transform="matrix(0.0136 0.9999 -0.9999 0.0136 -193.1438 193.3237)" width="55.784" height="350.152"/>
			</defs>
			<clipPath id="SVGID_2_">
				<use xlink:href="#SVGID_1_"  overflow="visible"/>
			</clipPath>
			<g clip-path="url(#SVGID_2_)">
				<path fill="#235032" d="M-57.307,12.789c-2.543-1.438-2.576-3.891-0.074-5.396c3.751-2.504,8.178-1.583,13.224-1.65
					c6.306-0.086,12.604-0.662,18.896-1.729c5.031-1.05,7.004,4.812,2.608,6.343c-5.023,1.542-10.686,2.6-16.354,3.168
					C-45.306,14.1-52.223,15.664-57.307,12.789z"/>
				<path fill="#235032" d="M-83.785,13.639c-3.797-0.93-6.956-1.377-10.746-1.816c-1.892,0.025-3.776,0.541-5.676,0.076
					c-1.9-0.464-3.16-0.446-5.065-1.401c-2.535-0.946-2.583-4.381-0.072-5.396c4.394-1.531,7.547-1.574,11.974-0.652
					c4.427,0.92,8.218,1.359,12.659,3.262C-76.902,9.621-79.358,14.561-83.785,13.639z"/>
				<path fill="#235032" d="M-161.396,11.259c-1.904-0.955-1.938-3.408-0.065-4.905c3.126-2.005,5.655-1.549,9.438-1.602
					c3.784-0.051,6.944,0.398,10.728,0.346c5.052,0.422,5.125,5.818,0.08,5.887c-3.154,0.043-6.299,0.576-9.453,0.619
					C-154.438,12.637-157.578,13.662-161.396,11.259z"/>
				<path fill="#235032" d="M-189.765,12.135c-6.964-1.868-13.887-0.792-20.843-2.17c-3.797-0.93-3.856-5.346-0.087-6.377
					c7.54-2.064,16.396-0.223,23.379,3.117C-183.512,8.125-185.968,13.064-189.765,12.135z"/>
				<path fill="#235032" d="M-270.527,9.798c-1.273-0.964-1.301-2.927-0.053-3.925c3.743-2.994,8.802-2.082,13.846-2.15
					c4.414-0.061,9.459-0.129,13.88,0.303c3.79,0.438,3.857,5.344,0.08,5.887c-4.407,0.549-8.19,0.602-12.604,0.662
					C-260.411,11.623-266.073,12.682-270.527,9.798z"/>
				<path fill="#235032" d="M-324.824,5.629c-0.04-2.944,3.717-4.957,6.883-4.02c5.059,0.914,11.364,0.827,16.415,1.25
					c3.16,0.447,3.221,4.862,0.074,5.396c-5.669,0.567-11.351,0.153-16.376,1.694C-320.974,10.482-324.784,8.572-324.824,5.629z"/>
				<path fill="#235032" d="M-345.815,26.882c-8.332-6.577-16.671-13.739-22.068-22.685c-0.675-1.156-0.694-2.609,0.612-3.5
					c8.158-6.221,17.324-11,25.148-17.508c2.605-2.363,6.612,1.365,4.003,3.437c-7.173,5.917-15.684,10.396-22.856,16.312
					c5.376,7.492,13.029,12.625,20.042,19.222C-337.595,25.314-342.484,29.455-345.815,26.882z"/>
			</g>
		</g>
	</g>
</g>
</svg>
