<?xml version="1.0" encoding="utf-8"?>
<!-- Generator: Adobe Illustrator 16.0.3, SVG Export Plug-In . SVG Version: 6.00 Build 0)  -->
<!DOCTYPE svg PUBLIC "-//W3C//DTD SVG 1.1//EN" "http://www.w3.org/Graphics/SVG/1.1/DTD/svg11.dtd">
<svg version="1.1" id="Capa_1" xmlns="http://www.w3.org/2000/svg" xmlns:xlink="http://www.w3.org/1999/xlink" x="0px" y="0px"
	 width="555px" height="165.677px" viewBox="112 133.5 555 165.677" enable-background="new 112 133.5 555 165.677"
	 xml:space="preserve">
<path fill="#791113" d="M127.026,273.617c-10.967,15.019-16.694,33.663-21.93,50.135c-1.063,3.032,2.129,3.985,3.848,1.407
	c6.464-16.878,14.893-32.396,23.976-47.462C135.13,272.946,129.89,269.32,127.026,273.617z"/>
<path fill="#791113" d="M187.008,230.848c-6.779,1.573-14.702,4.863-21.4,7.749c-5.472,2.479-4.981,10.342,0.573,9.173
	c6.127-2.028,12.905-3.602,19.685-5.175c6.78-1.576,15.519-1.791,22.788-5.533c3.022-1.669,3.349-6.458,0.163-7.411
	C203.589,226.031,194.359,228.416,187.008,230.848z"/>
<path fill="#791113" d="M233.067,238.822c-2.61-1.807-6.605,4.186-3.995,5.993c5.955,5.372,10.686,11.149,16.069,17.381
	c4.732,5.777,7.75,14.123,14.276,18.64c3.263,2.259,8.563-2.832,6.443-6.804C259.904,258.647,245.384,246.096,233.067,238.822z"/>
<path fill="#791113" d="M539.621,254.647c-5.644-0.143-12.84,4.918-18.237,8.712c-5.97,4.653-11.202,11.073-15.781,17.944
	c-2.861,4.295,1.718,7.466,4.579,3.171c4.008-6.014,8.751-10.26,14.148-14.055c4.826-2.937,10.388-4.106,15.211-7.042
	C543.792,261.302,543.382,254.743,539.621,254.647z"/>
<path fill="#791113" d="M599.461,220.703c-23.029,1.602-45.16-2.442-67.699-3.01c-10.616,0.169-13.228,18.417-3.183,19.104
	c18.21,1.329,36.504,3.971,55.775,2.274c-4.489,8.172-8.98,16.344-14.043,25.373c-1.633,3.883-5.634,9.887-4.733,14.271l0.081,1.309
	c0,0-0.571,0.856,0.082,1.31c0.164,2.62,3.92,2.715,5.063,0.999c1.226-0.404,1.798-1.264,2.94-2.978
	c3.511-3.838,5.716-8.577,9.145-13.724c6.777-11.603,12.981-22.348,21.066-33.045C608.036,227.895,605.096,220.844,599.461,220.703z
	"/>
</svg>
