<svg width="973" height="270" viewBox="0 0 973 270" fill="none" xmlns="http://www.w3.org/2000/svg">
<g clip-path="url(#clip0)">
<path d="M669.87 135.441C672.322 134.253 672.381 132.161 669.999 130.838C666.433 128.644 662.18 129.362 657.346 129.226C651.304 129.056 645.274 128.468 639.256 127.462C634.446 126.489 632.492 131.459 636.686 132.833C641.485 134.225 646.899 135.215 652.325 135.786C658.355 136.374 664.966 137.816 669.87 135.441Z" fill="#235032"/>
<path d="M695.235 136.572C698.883 135.837 701.915 135.504 705.552 135.186C707.365 135.237 709.165 135.707 710.991 135.339C712.815 134.972 714.023 135.006 715.86 134.22C718.3 133.451 718.382 130.522 715.989 129.618C711.795 128.244 708.774 128.159 704.521 128.877C700.268 129.595 696.631 129.911 692.355 131.466C688.682 133.038 690.982 137.291 695.235 136.572Z" fill="#235032"/>
<path d="M769.633 135.732C771.469 134.946 771.528 132.853 769.751 131.547C766.777 129.789 764.348 130.139 760.723 130.037C757.098 129.935 754.065 130.269 750.44 130.167C745.595 130.45 745.465 135.052 750.299 135.188C753.321 135.273 756.329 135.776 759.351 135.861C762.952 136.8 765.949 137.722 769.633 135.732Z" fill="#235032"/>
<path d="M796.81 136.914C803.503 135.427 810.126 136.451 816.807 135.382C820.456 134.647 820.562 130.881 816.96 129.943C809.757 128.065 801.251 129.501 794.522 132.244C790.862 133.397 793.161 137.649 796.81 136.914Z" fill="#235032"/>
<path d="M874.229 136.158C875.461 135.355 875.508 133.682 874.324 132.811C870.769 130.199 865.912 130.9 861.078 130.764C856.849 130.645 852.015 130.509 847.774 130.809C844.137 131.125 844.02 135.309 847.633 135.83C851.851 136.367 855.476 136.469 859.705 136.588C864.515 137.56 869.93 138.55 874.229 136.158Z" fill="#235032"/>
<path d="M926.308 133.434C926.379 130.924 922.8 129.148 919.756 129.9C914.899 130.601 908.857 130.431 904.012 130.714C900.979 131.047 900.873 134.813 903.882 135.317C909.308 135.888 914.758 135.622 919.556 137.013C922.565 137.517 926.237 135.945 926.308 133.434Z" fill="#235032"/>
<path d="M943.986 155.554C953.384 149.155 962.799 142.177 968.947 133.369C969.716 132.232 969.757 130.784 968.308 129.874C959.267 123.537 949.08 118.615 940.416 111.999C937.533 109.6 933.006 113.239 935.897 115.348C943.84 121.365 953.298 125.976 961.242 131.993C955.135 139.354 946.514 144.327 938.589 150.767C934.815 153.847 940.228 158.055 943.986 155.554Z" fill="#235032"/>
</g>
<g clip-path="url(#clip1)">
<path d="M349.772 134.449C352.224 133.261 352.282 131.169 349.901 129.846C346.334 127.652 342.082 128.37 337.247 128.234C331.205 128.064 325.176 127.476 319.157 126.47C314.347 125.497 312.394 130.467 316.588 131.841C321.386 133.233 326.8 134.223 332.226 134.794C338.256 135.382 344.867 136.824 349.772 134.449Z" fill="#235032"/>
<path d="M375.136 135.58C378.785 134.845 381.816 134.512 385.453 134.194C387.266 134.245 389.067 134.715 390.892 134.347C392.716 133.98 393.925 134.014 395.761 133.228C398.201 132.46 398.283 129.531 395.89 128.626C391.696 127.252 388.675 127.167 384.422 127.885C380.169 128.603 376.532 128.919 372.256 130.474C368.584 132.046 370.883 136.299 375.136 135.58Z" fill="#235032"/>
<path d="M449.534 134.74C451.371 133.954 451.429 131.862 449.652 130.556C446.678 128.797 444.25 129.147 440.624 129.046C436.999 128.944 433.967 129.277 430.341 129.175C425.496 129.458 425.367 134.061 430.2 134.197C433.222 134.281 436.23 134.785 439.252 134.87C442.853 135.808 445.851 136.731 449.534 134.74Z" fill="#235032"/>
<path d="M476.711 135.922C483.405 134.435 490.027 135.459 496.709 134.39C500.357 133.655 500.463 129.89 496.862 128.951C489.658 127.073 481.152 128.509 474.423 131.252C470.764 132.405 473.063 136.657 476.711 135.922Z" fill="#235032"/>
<path d="M554.131 135.166C555.363 134.364 555.41 132.69 554.225 131.819C550.67 129.207 545.813 129.908 540.98 129.772C536.75 129.653 531.917 129.517 527.676 129.817C524.039 130.133 523.921 134.318 527.535 134.838C531.752 135.375 535.377 135.477 539.607 135.596C544.417 136.568 549.831 137.558 554.131 135.166Z" fill="#235032"/>
<path d="M606.209 132.442C606.28 129.932 602.702 128.156 599.657 128.908C594.8 129.609 588.758 129.439 583.913 129.722C580.88 130.055 580.774 133.821 583.784 134.325C589.21 134.896 594.659 134.63 599.457 136.021C602.467 136.525 606.139 134.953 606.209 132.442Z" fill="#235032"/>
</g>
<g clip-path="url(#clip2)">
<path d="M38.8382 127.712C41.2902 126.525 41.349 124.433 38.9675 123.109C35.4011 120.915 31.1482 121.633 26.3137 121.497C20.2717 121.328 14.2425 120.739 8.22405 119.733C3.41399 118.76 1.4603 123.73 5.6544 125.104C10.4527 126.496 15.8669 127.486 21.2929 128.057C27.3231 128.645 33.934 130.087 38.8382 127.712Z" fill="#235032"/>
<path d="M64.2026 128.843C67.8512 128.108 70.883 127.775 74.52 127.458C76.3326 127.509 78.1334 127.978 79.9587 127.61C81.7831 127.243 82.9914 127.277 84.8275 126.492C87.2678 125.723 87.3501 122.794 84.9569 121.889C80.7628 120.515 77.7418 120.43 73.4889 121.148C69.236 121.866 65.5991 122.183 61.3227 123.737C57.6505 125.309 59.9497 129.562 64.2026 128.843Z" fill="#235032"/>
<path d="M138.601 128.003C140.437 127.217 140.496 125.125 138.719 123.819C135.745 122.06 133.316 122.411 129.691 122.309C126.066 122.207 123.033 122.54 119.408 122.439C114.563 122.721 114.433 127.324 119.267 127.46C122.289 127.545 125.297 128.048 128.319 128.133C131.92 129.072 134.917 129.994 138.601 128.003Z" fill="#235032"/>
<path d="M165.778 129.185C172.471 127.698 179.094 128.722 185.775 127.654C189.424 126.919 189.53 123.153 185.928 122.214C178.725 120.337 170.219 121.773 163.49 124.515C159.83 125.668 162.129 129.92 165.778 129.185Z" fill="#235032"/>
<path d="M243.198 128.43C244.43 127.627 244.477 125.953 243.292 125.082C239.737 122.47 234.88 123.171 230.046 123.035C225.817 122.916 220.983 122.78 216.742 123.08C213.105 123.396 212.988 127.581 216.601 128.101C220.819 128.638 224.444 128.74 228.673 128.859C233.483 129.832 238.898 130.821 243.198 128.43Z" fill="#235032"/>
<path d="M295.276 125.705C295.347 123.195 291.768 121.419 288.724 122.171C283.867 122.872 277.825 122.703 272.98 122.985C269.947 123.319 269.841 127.085 272.85 127.588C278.276 128.159 283.726 127.893 288.524 129.285C291.533 129.788 295.205 128.216 295.276 125.705Z" fill="#235032"/>
</g>
<defs>
<clipPath id="clip0">
<rect width="232" height="335" fill="white" transform="translate(972.417 27.135) rotate(91.6097)"/>
</clipPath>
<clipPath id="clip1">
<rect width="232" height="335" fill="white" transform="translate(652.318 26.1431) rotate(91.6097)"/>
</clipPath>
<clipPath id="clip2">
<rect width="232" height="335" fill="white" transform="translate(341.385 19.4062) rotate(91.6097)"/>
</clipPath>
</defs>
</svg>
