<?xml version="1.0" encoding="utf-8"?>
<!-- Generator: Adobe Illustrator 16.0.3, SVG Export Plug-In . SVG Version: 6.00 Build 0)  -->
<!DOCTYPE svg PUBLIC "-//W3C//DTD SVG 1.1//EN" "http://www.w3.org/Graphics/SVG/1.1/DTD/svg11.dtd">
<svg version="1.1" id="Capa_1" xmlns="http://www.w3.org/2000/svg" xmlns:xlink="http://www.w3.org/1999/xlink" x="0px" y="0px"
	 width="598px" height="86.023px" viewBox="0 0 598 86.023" enable-background="new 0 0 598 86.023" xml:space="preserve">
<path fill="#1C4F92" d="M11.026,67.356c-2.45,5.572-4.288,10.587-4.9,16.159C5.513,86.859,0,86.859,0,83.516
	c0-5.015,0-10.03,0.613-14.488c0.612-5.015,1.837-11.701,6.125-15.044c1.838-1.671,6.126-1.115,6.738,1.672
	C14.702,60.113,12.864,63.456,11.026,67.356z"/>
<path fill="#1C4F92" d="M48.394,25.565c-3.063,2.228-7.964,1.672-11.639,2.786c-4.9,1.114-8.576,3.9-10.414,8.358
	c-1.225,2.787-6.125,0.557-4.9-1.672c1.838-5.572,5.513-9.472,10.414-12.259c4.9-2.229,12.251-5.015,17.152-1.671
	C50.232,22.222,50.232,24.451,48.394,25.565z"/>
<path fill="#1C4F92" d="M109.04,19.436c-7.351,6.129-19.603,4.458-28.792,3.9c-4.289,0-4.289-5.572,0-6.129
	c4.288,0,8.576-0.556,12.864-1.115c4.288-0.558,9.188-2.229,13.477-1.671C109.04,14.421,111.49,17.207,109.04,19.436z"/>
<path fill="#1C4F92" d="M175.198,20.55c-10.414,5.572-25.115,3.9-36.142,0c-4.288-1.672-2.45-7.244,1.838-6.128
	c11.026,2.229,21.44,0,32.467-0.557C177.649,13.306,178.873,18.878,175.198,20.55z"/>
<path fill="#1C4F92" d="M237.069,23.336c-9.8,2.786-20.828,1.114-30.629,0.557c-4.9,0-4.9-6.688,0-6.688
	c9.801-0.556,21.441-2.228,30.629,0.558C240.745,18.321,240.745,22.222,237.069,23.336z"/>
<path fill="#1C4F92" d="M295.265,25.565c-4.289,3.9-9.803,2.229-15.316,1.672c-6.125-0.557-12.252-1.672-18.376-3.343
	c-4.289-1.671-3.064-7.801,1.837-6.688c6.125,1.671,12.252,2.229,18.377,2.229c4.901,0,9.189-1.115,12.864,2.229
	C296.489,22.222,296.489,24.451,295.265,25.565z"/>
<path fill="#1C4F92" d="M367.582,23.725c-10.414,5.572-25.115,3.9-36.141,0c-4.288-1.671-2.451-7.244,1.837-6.128
	c11.026,2.229,21.44,0,32.467-0.557C370.033,16.48,371.257,22.054,367.582,23.725z"/>
<path fill="#1C4F92" d="M429.454,26.511c-9.801,2.786-20.829,1.114-30.629,0.557c-4.901,0-4.901-6.688,0-6.688
	c9.8-0.556,21.439-2.228,30.629,0.557C433.129,21.496,433.129,25.397,429.454,26.511z"/>
<path fill="#1C4F92" d="M487.649,28.74c-4.289,3.9-9.803,2.228-15.315,1.672c-6.125-0.558-12.252-1.672-18.377-3.343
	c-4.289-1.672-3.064-7.801,1.838-6.688c6.125,1.671,12.251,2.229,18.376,2.229c4.901,0,9.189-1.114,12.865,2.229
	C488.873,25.397,488.873,27.626,487.649,28.74z"/>
<path fill="#1C4F92" d="M548.314,28.494c-4.289,3.899-9.803,2.228-15.315,1.672c-6.125-0.558-12.252-1.672-18.377-3.344
	c-4.289-1.671-3.064-7.801,1.838-6.688c6.125,1.672,12.252,2.229,18.377,2.229c4.9,0,9.188-1.114,12.864,2.229
	C549.539,25.15,549.539,27.379,548.314,28.494z"/>
<path fill="#1C4F92" d="M592.813,34.026c-14.091,3.344-23.893,13.931-37.368,18.946c-4.9,1.671-7.352-5.015-3.675-7.801
	c9.188-5.572,17.15-13.373,26.952-18.945c-3.675-2.787-7.351-5.572-11.64-8.359c-4.287-2.786-11.026-3.899-14.089-7.8
	c-1.838-2.229-2.449-5.572,0-7.801c11.64-9.473,34.918,13.373,42.269,20.618C599.552,26.782,597.714,32.911,592.813,34.026z"/>
</svg>
