<?xml version="1.0" encoding="utf-8"?>
<!-- Generator: Adobe Illustrator 16.0.3, SVG Export Plug-In . SVG Version: 6.00 Build 0)  -->
<!DOCTYPE svg PUBLIC "-//W3C//DTD SVG 1.1//EN" "http://www.w3.org/Graphics/SVG/1.1/DTD/svg11.dtd">
<svg version="1.1" id="Capa_1" xmlns="http://www.w3.org/2000/svg" xmlns:xlink="http://www.w3.org/1999/xlink" x="0px" y="0px"
	 width="555px" height="165.678px" viewBox="0 0 555 165.678" enable-background="new 0 0 555 165.678" xml:space="preserve">
<path fill="#791113" d="M49.155,83.545c-10.967,15.02-16.694,33.663-21.93,50.135c-1.063,3.032,2.129,3.985,3.848,1.407
	c6.464-16.878,14.893-32.396,23.976-47.462C57.259,82.874,52.019,79.248,49.155,83.545z"/>
<path fill="#791113" d="M109.137,40.776c-6.779,1.572-14.702,4.862-21.4,7.749c-5.472,2.479-4.981,10.342,0.573,9.173
	c6.127-2.028,12.905-3.603,19.685-5.175c6.78-1.576,15.519-1.791,22.788-5.533c3.022-1.669,3.349-6.458,0.163-7.411
	C125.718,35.959,116.488,38.344,109.137,40.776z"/>
<path fill="#791113" d="M155.196,48.75c-2.61-1.807-6.605,4.186-3.995,5.993c5.955,5.372,10.686,11.148,16.069,17.381
	c4.732,5.777,7.75,14.123,14.276,18.64c3.263,2.26,8.563-2.832,6.443-6.804C182.033,68.575,167.513,56.024,155.196,48.75z"/>
<path fill="#791113" d="M461.75,64.575c-5.645-0.144-12.84,4.918-18.237,8.712c-5.97,4.653-11.202,11.073-15.781,17.944
	c-2.86,4.295,1.719,7.466,4.579,3.171c4.009-6.015,8.751-10.261,14.148-14.056c4.826-2.937,10.388-4.105,15.211-7.042
	C465.921,71.23,465.511,64.671,461.75,64.575z"/>
<path fill="#791113" d="M521.59,30.631c-23.029,1.603-45.16-2.441-67.699-3.01c-10.616,0.169-13.228,18.417-3.183,19.104
	c18.21,1.329,36.504,3.972,55.775,2.274c-4.489,8.172-8.98,16.344-14.043,25.373c-1.634,3.883-5.635,9.887-4.733,14.271l0.081,1.31
	c0,0-0.571,0.855,0.082,1.31c0.164,2.62,3.92,2.715,5.063,0.999c1.227-0.403,1.798-1.264,2.94-2.978
	c3.511-3.838,5.716-8.577,9.145-13.725c6.777-11.603,12.981-22.348,21.066-33.045C530.165,37.823,527.225,30.772,521.59,30.631z"/>
<g>
	<path fill="#791113" d="M401.645,104.161c-5.332,3.645-9.153,8.624-14.49,12.27c-6.504,3.903-13.179,7.009-21.369,8.783
		c-5.852,1.27-4.649,6.819,1.201,5.552c9.362-2.025,18.55-4.846,26.222-8.998c6.507-3.904,15.178-9.102,17.654-14.625
		C412.517,103.467,405.811,100.765,401.645,104.161z"/>
	<path fill="#791113" d="M237.669,123.163c-6.216-2.813-12.808-3.527-19.027-6.345c-7.091-3.729-13.563-8.049-19.655-14.469
		c-4.355-4.583-8.708-0.452-4.351,4.135c6.963,7.337,14.552,14.079,22.511,18.729c7.092,3.73,16.542,8.704,22.889,7.907
		C244.26,132.591,243.017,125.058,237.669,123.163z"/>
	<path fill="#791113" d="M337.308,123.885c-24.377,4.451-48.971,7.942-74.213,8.537c-4.263,0.957-4.822,5.131-0.344,5.14
		c24.039,0.685,51.131,1.693,76.499-5.005C346.357,130.965,344.626,123.259,337.308,123.885z"/>
</g>
</svg>
