<?xml version="1.0" encoding="utf-8"?>
<!-- Generator: Adobe Illustrator 16.0.3, SVG Export Plug-In . SVG Version: 6.00 Build 0)  -->
<!DOCTYPE svg PUBLIC "-//W3C//DTD SVG 1.1//EN" "http://www.w3.org/Graphics/SVG/1.1/DTD/svg11.dtd">
<svg version="1.1" id="Capa_1" xmlns="http://www.w3.org/2000/svg" xmlns:xlink="http://www.w3.org/1999/xlink" x="0px" y="0px"
	 width="1440px" height="742.5px" viewBox="0 0 1440 742.5" enable-background="new 0 0 1440 742.5" xml:space="preserve">
<rect x="-1" fill="none" width="1441" height="420"/>
<g>
	<path fill="#1F5091" d="M518.206,356.511c12.581-11.78,31.994-17.301,47.094-24.995c3.595-2.215,7.191,2.012,3.237,5.254
		c-14.02,9.445-31.634,19.495-47.093,24.994C517.848,362.37,515.689,358.867,518.206,356.511z"/>
	<path fill="#1F5091" d="M441.646,425.44c5.029-14.376,19.766-25.874,33.067-33.267c2.876-1.771,5.034,1.73,2.158,3.504
		c-6.83,5.014-12.581,10.169-17.973,15.908c-4.672,5.295-8.266,10.731-12.938,16.027C444.523,430.11,440.567,428.521,441.646,425.44
		z"/>
	<path fill="#1F5091" d="M394.214,517.495c-0.362-7.025,2.512-15.24,6.104-22.287c2.515-7.188,6.827-14.678,10.78-21.142
		c1.437-2.496,5.033-1.491,3.596,1.006c-3.594,7.047-6.107,14.234-7.904,20.979c-2.514,7.188-2.87,14.656-5.386,21.844
		C400.688,521.56,394.575,521.3,394.214,517.495z"/>
	<path fill="#1F5091" d="M402.139,562.547c0.357-4.248,6.831-5.015,6.471-0.766c0.361,3.805,0.363,8.636,0.724,12.44
		c1.08,4.973,4.318,8.615,4.32,13.446c0.36,2.194-3.235,4.41-5.033,3.103C401.067,586.565,401.781,571.627,402.139,562.547z"/>
	<path fill="#1F5091" d="M427.695,647.477c-3.597-5.838-7.195-11.676-8.995-17.814c-1.079-3.362,3.234-6.021,5.033-3.102
		c3.957,4.811,6.835,9.479,10.072,14.733s7.914,9.621,8.994,16.204c0.72,2.777-4.313,5.878-6.471,3.987
		C432.013,657.703,429.854,652.59,427.695,647.477z"/>
	<path fill="#1F5091" d="M476.606,688.211c6.473,4.065,12.946,8.129,20.857,11.309c6.833,3.039,15.103,5.19,19.419,10.586
		c2.518,2.475-2.155,6.159-5.032,6.32c-8.27-0.54-15.464-5.772-21.937-9.839c-7.192-3.621-12.944-8.129-17.98-13.08
		C469.057,690.448,474.09,685.735,476.606,688.211z"/>
	<path fill="#1F5091" d="M536.66,713.219c6.831,1.428,14.023,3.44,20.495,4.283c3.236,0.422,7.191,0.401,10.787-0.204
		c3.595-0.604,5.033-1.491,8.629-0.484c2.518,0.864,2.519,4.086,0.721,5.999c-5.751,5.155-14.74,3.445-21.213,2.602
		c-7.909-1.568-14.741-4.604-21.934-8.227C532.346,715.879,534.143,712.354,536.66,713.219z"/>
	<path fill="#1F5091" d="M601.014,693.696c5.033,0.12,10.426-0.788,14.74-3.446c3.595-2.215,7.549-5.458,11.862-4.895
		c2.158,0.28,3.237,2.031,2.52,4.086c-3.594,10.267-23.008,10.957-30.2,8.944C597.417,697.523,598.135,693.858,601.014,693.696z"/>
	<path fill="#1F5091" d="M639.472,653.08c5.392-4.127,11.143-9.283,15.814-14.579c5.032-6.322,5.391-12.18,6.106-19.065
		c0.718-3.665,5.391-5.739,8.269-2.681c10.433,15.318-12.214,33.301-27.672,40.411C639.474,657.913,637.314,654.409,639.472,653.08z
		"/>
	<path fill="#1F5091" d="M651.677,592.401c0.354-12.3-6.479-20.17-10.078-30.839c-0.719-2.777,3.595-5.437,5.752-3.545
		c8.271,8.594,11.153,21.316,9,33.92C655.991,594.574,652.396,595.18,651.677,592.401z"/>
	<path fill="#1F5091" d="M586.926,493.771c19.057,1.948,30.927,14.771,38.48,28.638c1.439,2.336-3.594,5.438-5.032,3.102
		c-8.273-11.814-20.142-21.414-35.604-25.578C580.454,499.37,582.609,493.209,586.926,493.771z"/>
	<path fill="#1F5091" d="M519.323,477.442c16.18-2.722,32.36,0.999,46.384,6.048c3.597,1.006,0.002,6.441-2.875,4.994
		c-14.022-3.439-29.124-3.798-43.865-5.184C514.651,482.738,515.729,478.047,519.323,477.442z"/>
	<path fill="#1F5091" d="M456.041,469.727c10.065-6.203,25.887-6.287,35.954-4.438c4.314,0.563,2.159,6.723-2.155,6.16
		c-5.394-0.703-11.146-0.38-16.539,0.528c-5.394,0.907-11.146,2.841-16.898,3.165C453.526,475.303,453.885,471.055,456.041,469.727z
		"/>
	<path fill="#1F5091" d="M344.592,504.583c5.752-3.545,12.583-5.338,18.693-8.3c7.909-3.263,15.458-7.109,23.368-8.763
		c4.314-1.048,5.396,3.925,1.44,5.556c-7.19,2.82-14.739,6.667-21.57,10.071c-6.111,2.961-13.301,7.393-20.132,7.574
		C342.077,511.771,340.998,506.798,344.592,504.583z"/>
	<path fill="#1F5091" d="M277.008,538.178c8.267-7.511,20.85-12.849,31.274-18.468c3.594-2.215,6.113,1.871,2.519,4.086
		c-9.706,6.787-19.411,15.185-30.556,19.636C276.291,545.063,273.773,540.978,277.008,538.178z"/>
	<path fill="#1F5091" d="M211.943,582.303c4.313-4.269,9.705-6.787,14.739-9.889c5.031-3.101,10.784-6.646,16.177-9.164
		c3.595-2.215,6.473,2.455,2.878,4.67c-5.033,3.103-10.785,6.647-15.457,10.331c-5.033,3.103-9.706,6.787-15.459,8.722
		C211.945,588.745,209.787,585.243,211.943,582.303z"/>
	<path fill="#1F5091" d="M153.351,620.829c4.67-13.349,9.699-26.113,15.807-38.737c4.312-9.1,9.701-24.503,19.407-29.679
		c3.595-2.216,8.629-0.486,8.271,3.762c-0.716,8.496-8.623,18.201-12.936,25.691c-5.03,9.544-9.342,20.255-13.652,30.966
		c17.257-4.19,35.593-6.632,52.851-9.213c5.393-0.907,6.475,7.286,0.721,9.221c-20.852,6.407-42.425,6.815-62.916,15.416
		C156.23,630.33,152.272,625.521,153.351,620.829z"/>
</g>
<image overflow="visible" width="1440" height="420" xlink:href="../../../Downloads/2346_filesizer_-scaled-1-978x652 1.png"  transform="matrix(0.9999 0 0 0.9999 0.5898 0.0264)">
</image>
</svg>
