<?xml version="1.0" encoding="utf-8"?>
<!-- Generator: Adobe Illustrator 16.0.3, SVG Export Plug-In . SVG Version: 6.00 Build 0)  -->
<!DOCTYPE svg PUBLIC "-//W3C//DTD SVG 1.1//EN" "http://www.w3.org/Graphics/SVG/1.1/DTD/svg11.dtd">
<svg version="1.1" id="Capa_1" xmlns="http://www.w3.org/2000/svg" xmlns:xlink="http://www.w3.org/1999/xlink" x="0px" y="0px"
	 width="1440px" height="742.5px" viewBox="0 0 1440 742.5" enable-background="new 0 0 1440 742.5" xml:space="preserve">
<rect x="-1" y="0" fill="none" width="1441" height="420"/>
<g>
	<path fill="#1F5091" d="M1145.494,338.738c12.58-11.78,31.994-17.302,47.094-24.995c3.594-2.215,7.191,2.012,3.236,5.254
		c-14.02,9.444-31.633,19.495-47.092,24.994C1145.135,344.596,1142.977,341.094,1145.494,338.738z"/>
	<path fill="#1F5091" d="M1068.934,407.667c5.029-14.376,19.766-25.874,33.066-33.268c2.877-1.771,5.035,1.73,2.158,3.505
		c-6.83,5.014-12.58,10.169-17.973,15.907c-4.672,5.295-8.266,10.731-12.938,16.027
		C1071.811,412.337,1067.855,410.748,1068.934,407.667z"/>
	<path fill="#1F5091" d="M1021.502,499.721c-0.363-7.024,2.512-15.239,6.104-22.286c2.516-7.188,6.826-14.679,10.779-21.143
		c1.438-2.496,5.033-1.491,3.598,1.006c-3.596,7.047-6.107,14.234-7.904,20.979c-2.514,7.188-2.871,14.655-5.387,21.844
		C1027.977,503.787,1021.863,503.527,1021.502,499.721z"/>
	<path fill="#1F5091" d="M1029.426,544.774c0.357-4.248,6.832-5.016,6.473-0.767c0.359,3.806,0.361,8.637,0.723,12.44
		c1.08,4.973,4.318,8.615,4.32,13.446c0.359,2.193-3.234,4.409-5.033,3.103C1028.355,568.792,1029.068,553.854,1029.426,544.774z"/>
	<path fill="#1F5091" d="M1054.982,629.704c-3.598-5.838-7.195-11.676-8.994-17.814c-1.08-3.361,3.232-6.021,5.033-3.102
		c3.957,4.811,6.834,9.479,10.07,14.733c3.238,5.254,7.914,9.62,8.994,16.203c0.721,2.777-4.313,5.878-6.471,3.987
		C1059.301,639.929,1057.143,634.817,1054.982,629.704z"/>
	<path fill="#1F5091" d="M1103.895,670.438c6.473,4.064,12.945,8.129,20.855,11.309c6.834,3.039,15.104,5.19,19.42,10.586
		c2.518,2.475-2.156,6.159-5.033,6.32c-8.27-0.54-15.463-5.772-21.936-9.839c-7.193-3.621-12.945-8.129-17.98-13.08
		C1096.344,672.675,1101.377,667.962,1103.895,670.438z"/>
	<path fill="#1F5091" d="M1163.947,695.446c6.832,1.428,14.023,3.439,20.496,4.283c3.234,0.422,7.189,0.4,10.787-0.204
		c3.594-0.604,5.031-1.491,8.629-0.484c2.518,0.864,2.518,4.086,0.721,5.999c-5.752,5.155-14.74,3.445-21.213,2.603
		c-7.91-1.568-14.742-4.604-21.936-8.228C1159.633,698.106,1161.43,694.581,1163.947,695.446z"/>
	<path fill="#1F5091" d="M1228.301,675.923c5.033,0.12,10.428-0.788,14.74-3.446c3.596-2.215,7.549-5.457,11.863-4.895
		c2.158,0.28,3.236,2.031,2.52,4.086c-3.594,10.268-23.008,10.957-30.201,8.944C1224.705,679.75,1225.422,676.085,1228.301,675.923z
		"/>
	<path fill="#1F5091" d="M1266.76,635.306c5.393-4.127,11.143-9.282,15.814-14.578c5.031-6.322,5.391-12.181,6.105-19.065
		c0.719-3.665,5.391-5.739,8.27-2.681c10.432,15.317-12.215,33.301-27.672,40.41C1266.762,640.139,1264.602,636.635,1266.76,635.306
		z"/>
	<path fill="#1F5091" d="M1278.965,574.628c0.354-12.3-6.479-20.17-10.078-30.839c-0.719-2.777,3.596-5.438,5.752-3.545
		c8.271,8.594,11.152,21.316,9,33.92C1283.279,576.801,1279.684,577.407,1278.965,574.628z"/>
	<path fill="#1F5091" d="M1214.213,475.998c19.059,1.948,30.928,14.771,38.48,28.638c1.439,2.336-3.594,5.438-5.031,3.103
		c-8.273-11.814-20.143-21.414-35.604-25.578C1207.742,481.596,1209.896,475.436,1214.213,475.998z"/>
	<path fill="#1F5091" d="M1146.611,459.669c16.18-2.722,32.359,0.999,46.383,6.048c3.598,1.006,0.002,6.441-2.875,4.994
		c-14.021-3.438-29.123-3.798-43.865-5.184C1141.939,464.965,1143.018,460.274,1146.611,459.669z"/>
	<path fill="#1F5091" d="M1083.328,451.954c10.066-6.203,25.887-6.287,35.955-4.438c4.313,0.563,2.158,6.724-2.156,6.16
		c-5.393-0.703-11.145-0.38-16.539,0.528c-5.393,0.907-11.145,2.841-16.896,3.165
		C1080.814,457.53,1081.172,453.282,1083.328,451.954z"/>
	<path fill="#1F5091" d="M971.879,486.81c5.752-3.546,12.584-5.339,18.693-8.301c7.91-3.263,15.459-7.108,23.369-8.763
		c4.313-1.048,5.395,3.925,1.439,5.556c-7.189,2.82-14.738,6.667-21.57,10.071c-6.111,2.961-13.301,7.394-20.133,7.574
		C969.365,493.998,968.285,489.025,971.879,486.81z"/>
	<path fill="#1F5091" d="M904.295,520.405c8.268-7.511,20.851-12.85,31.275-18.468c3.594-2.216,6.111,1.87,2.518,4.086
		c-9.705,6.786-19.41,15.185-30.555,19.636C903.578,527.29,901.061,523.205,904.295,520.405z"/>
	<path fill="#1F5091" d="M839.23,564.53c4.313-4.27,9.705-6.787,14.739-9.89c5.03-3.101,10.784-6.646,16.177-9.164
		c3.596-2.215,6.473,2.455,2.878,4.671c-5.032,3.103-10.784,6.646-15.457,10.331c-5.032,3.103-9.706,6.786-15.459,8.722
		C839.232,570.971,837.074,567.469,839.23,564.53z"/>
	<path fill="#1F5091" d="M780.639,603.055c4.67-13.349,9.699-26.112,15.807-38.736c4.313-9.101,9.701-24.503,19.407-29.68
		c3.595-2.216,8.629-0.485,8.271,3.763c-0.715,8.496-8.623,18.201-12.936,25.69c-5.029,9.544-9.342,20.255-13.652,30.966
		c17.258-4.189,35.594-6.632,52.852-9.213c5.393-0.906,6.475,7.286,0.721,9.222c-20.852,6.406-42.425,6.814-62.916,15.416
		C783.518,612.556,779.56,607.748,780.639,603.055z"/>
</g>
<image overflow="visible" width="6000" height="1750" xlink:href="59A91B2C.jpg"  transform="matrix(0.24 0 0 0.24 0.5903 0.0256)">
</image>
</svg>
