<svg width="80" height="80" viewBox="0 0 80 80" fill="none" xmlns="http://www.w3.org/2000/svg">
<g clip-path="url(#clip0)">
<path fill-rule="evenodd" clip-rule="evenodd" d="M40.0006 0.297668C50.5299 0.297843 60.6279 4.48037 68.0734 11.9252C75.519 19.3701 79.7022 29.4675 79.7029 39.9964C79.7032 45.2102 78.6765 50.3731 76.6815 55.1902C74.6864 60.0072 71.7621 64.3842 68.0753 68.0711C64.3886 71.7581 60.0118 74.6828 55.1947 76.6782C50.3776 78.6737 45.2146 79.7008 40.0006 79.701C29.4703 79.7003 19.3716 75.5168 11.9259 68.0708C4.48025 60.6248 0.297433 50.5262 0.297607 39.9964C0.29883 29.4675 4.48229 19.3703 11.9279 11.9256C19.3734 4.48081 29.4713 0.298192 40.0006 0.297668Z" fill="#235032" stroke="white" stroke-width="0.903" stroke-miterlimit="22.926"/>
<path d="M40.0007 3.33179C49.7259 3.33126 59.053 7.19374 65.9304 14.0696C72.8078 20.9455 76.6721 30.2715 76.6733 39.9963C76.673 49.722 72.8091 59.0493 65.9318 65.9264C59.0544 72.8035 49.7268 76.6671 40.0007 76.6675C30.2749 76.667 20.9477 72.8031 14.0709 65.926C7.19411 59.0488 3.33095 49.7217 3.3313 39.9963C3.33147 35.1812 4.2801 30.4134 6.12301 25.9649C7.96592 21.5164 10.667 17.4744 14.0721 14.0698C17.4772 10.6652 21.5195 7.96455 25.9684 6.12212C30.4172 4.27968 35.1854 3.33153 40.0007 3.33179Z" stroke="white" stroke-width="2.71" stroke-miterlimit="22.926"/>
<path d="M45.6398 13.4156L44.7348 13.2845L44.5247 12.2874L42.8459 12.0384L42.3605 12.9308L41.4688 12.7991L43.712 8.8772L44.5906 9.00892L45.6398 13.4156ZM44.3548 11.5399L44.0005 9.91316L43.2134 11.3693L44.3548 11.5399Z" fill="#FEFEFE"/>
<path d="M35.6965 13.1106L35.3672 8.91342L37.1382 8.7817C37.4704 8.7364 37.8079 8.74977 38.1354 8.82121C38.3408 8.88604 38.5201 9.0148 38.6471 9.18871C38.7942 9.37125 38.8771 9.59715 38.8829 9.8315C38.92 10.1202 38.8453 10.4121 38.6741 10.6475C38.462 10.8755 38.1808 11.0275 37.8739 11.0802C38.0505 11.1603 38.2142 11.2664 38.3593 11.395C38.5488 11.5975 38.7248 11.8123 38.8862 12.0378L39.4612 12.8209L38.4515 12.9012L37.7823 12.0352C37.5334 11.7203 37.3496 11.5234 37.2838 11.4424C37.2118 11.3698 37.1203 11.3197 37.0203 11.2982C36.8795 11.2593 36.7321 11.2503 36.5876 11.2718L36.417 11.285L36.5488 13.0428L35.6965 13.1106ZM36.3657 10.6317L36.9953 10.5922C37.2443 10.586 37.4913 10.5463 37.7297 10.4743C37.8224 10.4394 37.9009 10.3748 37.9529 10.2905C38.0042 10.1846 38.0225 10.0658 38.0056 9.94938C38.0093 9.88818 37.9994 9.82693 37.9766 9.77C37.9538 9.71308 37.9188 9.66189 37.8739 9.62009C37.782 9.53137 37.6604 9.47996 37.5327 9.47586C37.4669 9.47586 37.2574 9.48903 36.9294 9.51537L36.2708 9.55489L36.3657 10.6317Z" fill="#FEFEFE"/>
<path d="M47.9844 14.0576L49.3227 10.1094L50.1335 10.3853L49.021 13.6645L51.0147 14.3461L50.7921 15.0152L47.9844 14.0576Z" fill="#FEFEFE"/>
<path d="M28.4727 10.7449L29.2861 10.4953L29.9578 12.6858C30.0757 13.027 30.1554 13.2496 30.1811 13.3444C30.2214 13.4215 30.2774 13.4893 30.3455 13.5435C30.4135 13.5977 30.4921 13.6371 30.5763 13.6592C30.761 13.7138 30.9581 13.7092 31.1401 13.646C31.3236 13.6011 31.4886 13.5003 31.6123 13.3576C31.6896 13.2319 31.7262 13.0853 31.717 12.938C31.6718 12.7035 31.6149 12.4714 31.5464 12.2426L30.847 10.0099L31.6604 9.76099L32.319 11.8856C32.4327 12.222 32.5117 12.5691 32.5548 12.9216C32.5824 13.1174 32.5553 13.3171 32.4764 13.4985C32.4019 13.688 32.2743 13.852 32.1089 13.9707C31.9009 14.1503 31.6522 14.2765 31.3844 14.3382C31.0945 14.4417 30.7869 14.4864 30.4795 14.4699C30.2672 14.4612 30.0617 14.3927 29.8867 14.2724C29.7328 14.1801 29.606 14.0487 29.5192 13.8917C29.3499 13.5754 29.2174 13.2409 29.124 12.8946L28.4727 10.7449Z" fill="#FEFEFE"/>
<path d="M53.0894 16.1816L55.3063 12.5995L57.9408 14.2394L57.5732 14.8427L55.6599 13.6632L55.1587 14.4634L56.9456 15.5632L56.5649 16.1685L54.7814 15.0666L54.1781 16.0367L56.1585 17.2703L55.791 17.8736L53.0894 16.1816Z" fill="#FEFEFE"/>
<path d="M25.644 16.9298L23.9915 13.8502L22.8896 14.4429L22.5603 13.8133L25.4984 12.2393L25.8277 12.8689L24.739 13.4616L26.3915 16.5438L25.644 16.9298Z" fill="#FEFEFE"/>
<path d="M57.5957 19.3324L58.1226 18.7818L61.6133 18.2832L60.1795 16.945L60.6649 16.4332L62.9081 18.5453L62.4471 19.0175L58.8418 19.5286L60.5733 21.1553L60.0879 21.6638L57.5957 19.3324Z" fill="#FEFEFE"/>
<path d="M23.1933 18.5624L22.5241 19.192L21.5935 18.7481L20.3599 19.9007L20.7696 20.8319L20.1109 21.4484L18.4189 17.2512L19.0776 16.6479L23.1933 18.5624ZM20.9112 18.405L19.4286 17.6707L20.0714 19.192L20.9112 18.405Z" fill="#FEFEFE"/>
<path d="M63.7728 26.7587L63.2742 25.9967L63.8775 25.157L62.9469 23.7423L61.9629 23.9912L61.4644 23.2306L65.885 22.2993L66.3836 23.033L63.7728 26.7587ZM64.3109 24.5418L65.3074 23.2042L63.6813 23.5717L64.3109 24.5418Z" fill="#FEFEFE"/>
<path d="M16.6354 26.0565L13.1987 23.6303L13.671 22.9612L16.9641 23.1712L14.6688 21.5445L15.1298 20.9017L18.5639 23.3286L18.0653 24.0235L14.838 23.8134L17.0945 25.4138L16.6354 26.0565Z" fill="#FEFEFE"/>
<path fill-rule="evenodd" clip-rule="evenodd" d="M10.5983 38.2024C11.0745 38.2024 11.5312 38.3913 11.8683 38.7276C12.2054 39.0639 12.3953 39.5202 12.3963 39.9964C12.3965 40.2329 12.3501 40.467 12.2597 40.6855C12.1693 40.904 12.0367 41.1025 11.8696 41.2698C11.7024 41.437 11.5039 41.5696 11.2854 41.6601C11.0669 41.7506 10.8328 41.7971 10.5963 41.797C10.3598 41.7972 10.1256 41.7507 9.90704 41.6603C9.68849 41.5699 9.48992 41.4372 9.32267 41.27C9.15543 41.1028 9.0228 40.9042 8.93237 40.6857C8.84194 40.4671 8.79548 40.2329 8.79565 39.9964C8.79688 39.5195 8.98746 39.0626 9.32551 38.7262C9.66355 38.3897 10.1214 38.2013 10.5983 38.2024Z" fill="white" stroke="white" stroke-width="0.723" stroke-miterlimit="22.926"/>
<path d="M16.7453 58.7037C16.9974 58.4393 17.3071 58.2364 17.6502 58.111C17.8724 58.0269 18.109 57.9875 18.3464 57.995C18.5675 57.9941 18.7863 58.039 18.9892 58.1268C19.2807 58.2512 19.5406 58.4394 19.7499 58.6774C19.9442 58.8718 20.0976 59.1031 20.2011 59.3577C20.3046 59.6123 20.3561 59.885 20.3525 60.1598C20.2893 60.7466 20.0028 61.2866 19.5523 61.668C19.3549 61.8794 19.1176 62.0497 18.8542 62.1691C18.5907 62.2884 18.3062 62.3545 18.0171 62.3635C17.7447 62.3545 17.4771 62.2892 17.2311 62.1718C16.9852 62.0544 16.7662 61.8874 16.5879 61.6812C16.3891 61.4867 16.2319 61.2538 16.1259 60.9967C16.02 60.7396 15.9674 60.4636 15.9714 60.1855C16.0246 59.6091 16.3026 59.0767 16.7453 58.7037ZM17.3618 59.3333C17.0614 59.577 16.8608 59.9224 16.798 60.3041C16.7823 60.4616 16.8012 60.6206 16.8533 60.7701C16.9054 60.9195 16.9895 61.0558 17.0996 61.1695C17.2037 61.2913 17.3351 61.3869 17.4831 61.4484C17.631 61.51 17.7914 61.5358 17.9512 61.5238C18.3449 61.4899 18.7108 61.3068 18.9741 61.0121C19.2678 60.766 19.4713 60.429 19.5523 60.0545C19.5636 59.892 19.5388 59.729 19.4798 59.5771C19.4209 59.4252 19.3291 59.2883 19.2112 59.1759C19.1106 59.0564 18.9835 58.9622 18.8399 58.9006C18.6964 58.8391 18.5405 58.812 18.3846 58.8216C17.9894 58.8502 17.6216 59.0342 17.3618 59.3333Z" fill="white"/>
<path d="M63.0911 61.9638L59.9297 59.2484L60.4935 58.6056L63.1174 60.8619L64.4814 59.2616L65.0195 59.7226L63.0911 61.9638Z" fill="white"/>
<path d="M21.7087 66.1161L23.844 62.4827L25.3944 63.3902C25.6858 63.5443 25.9478 63.7485 26.1683 63.9935C26.3053 64.1605 26.3797 64.3702 26.3784 64.5862C26.396 64.8202 26.336 65.0535 26.2078 65.2501C26.073 65.5022 25.8482 65.6943 25.5781 65.7881C25.2745 65.8586 24.9561 65.8259 24.6732 65.6953C24.7734 65.8613 24.8445 66.0433 24.8833 66.2334C24.9212 66.5074 24.9432 66.7833 24.9492 67.0599L24.9755 68.0307L24.0956 67.5196L24.0416 66.4197C24.032 66.1642 24.0063 65.9094 23.9645 65.6571C23.9451 65.5555 23.8997 65.4607 23.8328 65.3818C23.7381 65.2687 23.6222 65.1752 23.4916 65.1065L23.3342 65.0281L22.4431 66.5515L21.7087 66.1161ZM23.676 64.4631L24.2266 64.7779C24.4347 64.924 24.6652 65.0352 24.909 65.1072C25.0006 65.1228 25.0946 65.1183 25.1843 65.094C25.2914 65.0393 25.3785 64.9522 25.4332 64.845C25.5032 64.7461 25.5314 64.6235 25.5116 64.5039C25.485 64.3789 25.415 64.2674 25.314 64.1891C25.2613 64.1496 25.0782 64.0317 24.7871 63.8598L24.2102 63.5305L23.676 64.4631Z" fill="white"/>
<path d="M59.7525 65.0664L58.9905 65.5781L58.1527 64.9742L56.736 65.9054L56.985 66.8894L56.2243 67.3879L55.293 62.9674L56.0267 62.4821L59.7525 65.0664ZM57.5356 64.5395L56.1979 63.545L56.5654 65.1718L57.5356 64.5395Z" fill="white"/>
<path d="M29.1274 69.7918L30.3736 65.7651L31.1837 66.0141L29.9402 70.0414L29.1274 69.7918Z" fill="white"/>
<path d="M48.9605 70.4676L47.5312 66.5061L48.2906 66.2308L50.8889 68.2771L49.9313 65.6276L50.6788 65.3641L52.1106 69.3262L51.3104 69.6147L48.7517 67.5948L49.6955 70.1923L48.9605 70.4676Z" fill="white"/>
<path d="M36.8246 69.8959L36.901 69.1879L38.7109 69.398L38.5133 71.0636C38.269 71.2362 37.9941 71.3607 37.7032 71.4304C37.3614 71.5217 37.0056 71.5485 36.654 71.5094C36.2534 71.4726 35.8692 71.3323 35.539 71.1024C35.2564 70.8746 35.0391 70.576 34.9093 70.237C34.7885 69.8649 34.7527 69.4703 34.8046 69.0825C34.8352 68.6766 34.9757 68.2866 35.211 67.9543C35.4147 67.6302 35.7256 67.3879 36.0896 67.2694C36.4198 67.1444 36.777 67.1083 37.1256 67.1647C37.5563 67.1888 37.967 67.3548 38.2933 67.6369C38.5658 67.8894 38.7308 68.237 38.7544 68.6077L37.8889 68.663C37.8542 68.463 37.758 68.2788 37.6136 68.1361C37.4512 67.996 37.2469 67.9138 37.0327 67.9023C36.8687 67.8726 36.7002 67.8795 36.5392 67.9225C36.3782 67.9656 36.2287 68.0437 36.1014 68.1513C35.8337 68.4164 35.6746 68.772 35.6556 69.1484C35.5819 69.5502 35.6571 69.965 35.867 70.3154C35.9629 70.4477 36.0866 70.5576 36.2293 70.6372C36.3721 70.7168 36.5305 70.7643 36.6935 70.7764C36.8787 70.7974 37.0663 70.7795 37.2441 70.7237C37.4085 70.682 37.5671 70.6203 37.7164 70.54L37.7822 70.0019L36.8246 69.8959Z" fill="white"/>
<path d="M43.2897 71.4435L42.803 67.2595L43.6427 67.1548L44.1275 71.3388L43.2897 71.4435Z" fill="white"/>
<path d="M25.3266 48.3972V35.307C25.332 35.053 25.2691 34.8021 25.1446 34.5807C25.0201 34.3592 24.8384 34.1752 24.6186 34.0478C24.0576 33.7235 23.4167 33.5637 22.7692 33.5867C22.4408 33.5818 22.1135 33.6262 21.7983 33.7185C21.5139 33.7981 21.2439 33.9221 20.9981 34.086C20.7842 34.2268 20.5976 34.4053 20.4475 34.6128C20.3133 34.8202 20.2404 35.0613 20.2374 35.3083V48.3972H18.4032V35.1232C18.3956 34.6861 18.519 34.2568 18.7575 33.8903C18.9784 33.5027 19.2944 33.1777 19.6756 32.9459C20.0957 32.6756 20.5552 32.4721 21.0376 32.3427C21.6047 32.207 22.1861 32.1407 22.7692 32.1451C23.8924 32.0826 25.0083 32.3616 25.97 32.9453C26.3417 33.212 26.6399 33.5685 26.8369 33.9814C27.0339 34.3943 27.1234 34.8503 27.0969 35.307V48.3972H25.3266Z" fill="white"/>
<path d="M30.1674 41.5889V48.3968H28.3331V35.3454C28.3162 34.8835 28.4166 34.4247 28.6249 34.0121C28.8333 33.5994 29.1428 33.2463 29.5246 32.9857C30.4679 32.3785 31.5789 32.0846 32.6991 32.146C33.8363 32.0705 34.964 32.3953 35.8869 33.064C36.2527 33.3575 36.5459 33.7314 36.7436 34.1567C36.9414 34.582 37.0383 35.0471 37.0269 35.516V48.3968H35.2566V41.5889H30.1674ZM35.2566 35.3059C35.2614 35.0557 35.1828 34.8111 35.0333 34.6104C34.864 34.3948 34.6602 34.2087 34.43 34.0598C34.1659 33.9073 33.8838 33.7883 33.5902 33.7055C33.2992 33.6285 32.9995 33.5889 32.6985 33.5876C32.393 33.5881 32.0889 33.6277 31.7935 33.7055C31.505 33.7908 31.2276 33.9097 30.967 34.0598C30.7453 34.2053 30.5539 34.3923 30.4032 34.6104C30.2501 34.8099 30.1672 35.0544 30.1674 35.3059V39.9753H35.2566V35.3059Z" fill="white"/>
<path d="M43.9931 48.3968V35.2539C44.0112 35.0137 43.9692 34.7727 43.8707 34.5529C43.7723 34.333 43.6206 34.1411 43.4293 33.9947C43.0146 33.7178 42.5244 33.5759 42.0258 33.5883C41.5218 33.5644 41.0239 33.7072 40.6091 33.9947C40.4138 34.1381 40.2583 34.3291 40.1573 34.5494C40.0563 34.7698 40.0133 35.0123 40.0322 35.2539V48.3968H38.2631V35.188C38.2232 34.7471 38.2931 34.3032 38.4667 33.8959C38.6402 33.4886 38.912 33.1306 39.2576 32.854C40.0581 32.3334 41.0051 32.0849 41.958 32.1453C42.5758 32.1339 43.1902 32.2408 43.7679 32.4601C44.2474 32.6538 44.6494 33.0007 44.9112 33.4467C45.1812 32.9931 45.5974 32.6447 46.0915 32.4588C46.6732 32.2372 47.2922 32.1303 47.9145 32.144C48.8601 32.0863 49.8001 32.3248 50.6037 32.8263C50.9353 33.1182 51.1936 33.484 51.3577 33.8941C51.5218 34.3043 51.587 34.7473 51.5482 35.1874V48.3968H49.7778V35.2539C49.7952 35.015 49.7542 34.7754 49.6581 34.556C49.562 34.3366 49.4139 34.1439 49.2265 33.9947C48.8003 33.7106 48.2953 33.5684 47.7835 33.5883C47.2932 33.5759 46.8113 33.718 46.4063 33.9947C46.2087 34.1369 46.0505 34.3272 45.9468 34.5475C45.8431 34.7678 45.7972 35.0109 45.8135 35.2539V48.3968H43.9931Z" fill="white"/>
<path d="M54.5917 41.5889V48.3968H52.7575V35.3454C52.7405 34.8835 52.8409 34.4247 53.0492 34.0121C53.2576 33.5994 53.5671 33.2463 53.9489 32.9857C54.8923 32.3785 56.0032 32.0846 57.1234 32.146C58.2606 32.0705 59.3883 32.3953 60.3112 33.064C60.677 33.3575 60.9702 33.7314 61.1679 34.1567C61.3657 34.582 61.4626 35.0471 61.4512 35.516V48.3968H59.6809V41.5889H54.5917ZM59.6809 35.3059C59.6857 35.0557 59.6071 34.8111 59.4576 34.6104C59.2883 34.3948 59.0845 34.2087 58.8543 34.0598C58.5902 33.9073 58.3081 33.7883 58.0146 33.7055C57.7235 33.6285 57.4238 33.5889 57.1228 33.5876C56.8173 33.5881 56.5132 33.6277 56.2178 33.7055C55.9294 33.7908 55.6519 33.9097 55.3913 34.0598C55.1696 34.2053 54.9782 34.3923 54.8275 34.6104C54.6744 34.8099 54.5915 35.0544 54.5917 35.3059V39.9753H59.6809V35.3059Z" fill="white"/>
<path fill-rule="evenodd" clip-rule="evenodd" d="M68.7138 38.2024C68.95 38.2021 69.184 38.2484 69.4023 38.3386C69.6206 38.4287 69.8191 38.561 69.9863 38.7278C70.1535 38.8946 70.2862 39.0928 70.3768 39.3109C70.4674 39.529 70.5142 39.7628 70.5145 39.999C70.5147 40.2355 70.4682 40.4698 70.3778 40.6883C70.2873 40.9068 70.1547 41.1054 69.9875 41.2726C69.8202 41.4399 69.6217 41.5725 69.4031 41.6629C69.1846 41.7533 68.9503 41.7998 68.7138 41.7996C68.4774 41.7997 68.2432 41.7532 68.0247 41.6627C67.8063 41.5723 67.6078 41.4396 67.4406 41.2724C67.2734 41.1052 67.1409 40.9066 67.0505 40.6881C66.9601 40.4697 66.9136 40.2355 66.9138 39.999C66.914 39.7629 66.9607 39.5291 67.0513 39.3109C67.1418 39.0928 67.2745 38.8947 67.4416 38.7278C67.6088 38.561 67.8072 38.4287 68.0254 38.3386C68.2437 38.2484 68.4776 38.2021 68.7138 38.2024Z" fill="white" stroke="white" stroke-width="0.723" stroke-miterlimit="22.926"/>
<path d="M59.5701 31.2186C60.1767 31.5314 60.7567 31.8933 61.3042 32.3007C61.78 32.6517 62.1974 33.0756 62.5411 33.5566C62.7797 33.8905 62.9285 34.2801 62.9732 34.6881C63.5732 34.6387 64.1706 34.5932 64.7706 34.5471C64.7065 33.8278 64.4544 33.138 64.0395 32.547C63.5861 31.9045 63.0326 31.3388 62.4002 30.8715C61.7707 30.401 61.104 29.9825 60.4066 29.6202C59.3317 29.0661 58.2142 28.599 57.0647 28.2233C51.5356 26.4524 46.1316 25.9577 40.3437 25.8688C34.4773 25.9116 29.0305 26.3957 23.4362 28.2464C21.5815 28.812 19.8409 29.6999 18.2944 30.8695C17.7376 31.3027 17.266 31.8353 16.9033 32.4403C16.7789 32.6761 16.2836 33.8964 16.5299 34.1092C16.5595 34.0901 17.041 32.8045 17.1727 32.6076C17.568 32.0822 18.0463 31.6249 18.5888 31.2535C20.1594 30.2498 21.8749 29.4933 23.6753 29.0103C29.263 27.5055 34.5524 27.1834 40.3213 27.2888C45.9452 27.5153 51.1365 28.112 56.4851 29.9231C57.5396 30.2899 58.5699 30.7226 59.5701 31.2186Z" fill="white"/>
<path d="M20.7116 51.4138C20.0939 51.1239 19.5017 50.7827 18.9412 50.3936C18.452 50.0614 18.0183 49.654 17.6563 49.1864C17.4085 48.8601 17.247 48.4766 17.1867 48.0714C16.5867 48.1373 15.9893 48.2091 15.3926 48.2743C15.4829 48.9924 15.7612 49.674 16.1994 50.25C16.6755 50.8754 17.248 51.4211 17.8953 51.8669C18.5418 52.3156 19.2248 52.7093 19.9371 53.0438C21.0314 53.5589 22.1652 53.9854 23.3276 54.3195C28.9154 55.8902 34.3391 56.1879 40.1225 56.0674C45.9842 55.8112 51.4132 55.1355 56.9351 53.08C58.767 52.4476 60.4732 51.4974 61.9755 50.2731C62.5175 49.8211 62.9703 49.2719 63.3105 48.6536C63.4278 48.4112 63.8769 47.1744 63.6221 46.9683C63.5964 46.9907 63.161 48.2927 63.0352 48.4929C62.6601 49.0329 62.1993 49.508 61.6712 49.8997C60.1364 50.9594 58.4483 51.7778 56.6657 52.3266C51.1366 54.0317 45.8604 54.546 40.0915 54.6475C34.4643 54.6251 29.2572 54.2154 23.846 52.6019C22.7777 52.2737 21.7315 51.8777 20.7136 51.4164" fill="white"/>
</g>
<defs>
<clipPath id="clip0">
<rect width="80" height="80" fill="white"/>
</clipPath>
</defs>
</svg>
