<svg width="1440" height="104" viewBox="0 0 1440 104" fill="none" xmlns="http://www.w3.org/2000/svg">
<path d="M865.524 54.9082C865.367 56.5768 864.751 57.8802 863.677 58.8184C862.603 59.7493 861.174 60.2148 859.391 60.2148C858.145 60.2148 857.045 59.9212 856.093 59.334C855.147 58.7396 854.417 57.8981 853.901 56.8096C853.386 55.721 853.117 54.457 853.096 53.0176V51.5566C853.096 50.0814 853.357 48.7816 853.88 47.6572C854.403 46.5329 855.151 45.6663 856.125 45.0576C857.106 44.4489 858.238 44.1445 859.52 44.1445C861.245 44.1445 862.635 44.6136 863.688 45.5518C864.74 46.4899 865.353 47.8148 865.524 49.5264H862.817C862.688 48.402 862.359 47.5928 861.829 47.0986C861.306 46.5973 860.536 46.3467 859.52 46.3467C858.338 46.3467 857.428 46.7799 856.791 47.6465C856.161 48.5059 855.839 49.7699 855.824 51.4385V52.8242C855.824 54.5143 856.125 55.8034 856.727 56.6914C857.335 57.5794 858.223 58.0234 859.391 58.0234C860.458 58.0234 861.26 57.7835 861.797 57.3037C862.334 56.8239 862.674 56.0254 862.817 54.9082H865.524ZM874.655 60C874.541 59.778 874.44 59.4163 874.354 58.915C873.524 59.7816 872.507 60.2148 871.304 60.2148C870.136 60.2148 869.184 59.8818 868.446 59.2158C867.709 58.5498 867.34 57.7262 867.34 56.7451C867.34 55.5062 867.798 54.5573 868.715 53.8984C869.639 53.2324 870.956 52.8994 872.668 52.8994H874.269V52.1367C874.269 51.5352 874.1 51.0553 873.764 50.6973C873.427 50.332 872.915 50.1494 872.228 50.1494C871.633 50.1494 871.146 50.2998 870.767 50.6006C870.387 50.8942 870.197 51.2702 870.197 51.7285H867.587C867.587 51.0911 867.798 50.4967 868.221 49.9453C868.643 49.3867 869.216 48.9499 869.939 48.6348C870.67 48.3197 871.483 48.1621 872.378 48.1621C873.739 48.1621 874.824 48.5059 875.633 49.1934C876.442 49.8737 876.857 50.8333 876.879 52.0723V57.3145C876.879 58.36 877.026 59.1943 877.319 59.8174V60H874.655ZM871.787 58.1201C872.303 58.1201 872.786 57.9948 873.237 57.7441C873.696 57.4935 874.039 57.1569 874.269 56.7344V54.543H872.861C871.895 54.543 871.168 54.7113 870.681 55.0479C870.194 55.3844 869.95 55.8607 869.95 56.4766C869.95 56.9779 870.115 57.3789 870.444 57.6797C870.781 57.9733 871.229 58.1201 871.787 58.1201ZM882.884 45.5518V48.377H884.936V50.3105H882.884V56.7988C882.884 57.2428 882.97 57.5651 883.142 57.7656C883.321 57.959 883.636 58.0557 884.087 58.0557C884.388 58.0557 884.692 58.0199 885 57.9482V59.9678C884.406 60.1325 883.833 60.2148 883.281 60.2148C881.276 60.2148 880.273 59.1084 880.273 56.8955V50.3105H878.361V48.377H880.273V45.5518H882.884ZM893.884 60C893.769 59.778 893.669 59.4163 893.583 58.915C892.752 59.7816 891.735 60.2148 890.532 60.2148C889.365 60.2148 888.412 59.8818 887.675 59.2158C886.937 58.5498 886.568 57.7262 886.568 56.7451C886.568 55.5062 887.027 54.5573 887.943 53.8984C888.867 53.2324 890.185 52.8994 891.896 52.8994H893.497V52.1367C893.497 51.5352 893.329 51.0553 892.992 50.6973C892.656 50.332 892.144 50.1494 891.456 50.1494C890.862 50.1494 890.375 50.2998 889.995 50.6006C889.616 50.8942 889.426 51.2702 889.426 51.7285H886.815C886.815 51.0911 887.027 50.4967 887.449 49.9453C887.872 49.3867 888.445 48.9499 889.168 48.6348C889.898 48.3197 890.711 48.1621 891.606 48.1621C892.967 48.1621 894.052 48.5059 894.861 49.1934C895.671 49.8737 896.086 50.8333 896.107 52.0723V57.3145C896.107 58.36 896.254 59.1943 896.548 59.8174V60H893.884ZM891.016 58.1201C891.531 58.1201 892.015 57.9948 892.466 57.7441C892.924 57.4935 893.268 57.1569 893.497 56.7344V54.543H892.09C891.123 54.543 890.396 54.7113 889.909 55.0479C889.422 55.3844 889.179 55.8607 889.179 56.4766C889.179 56.9779 889.343 57.3789 889.673 57.6797C890.009 57.9733 890.457 58.1201 891.016 58.1201ZM892.466 43.5H895.441L892.466 46.7549H890.371L892.466 43.5ZM901.618 60H899.008V43.5H901.618V60ZM903.981 54.0811C903.981 52.9424 904.207 51.9183 904.658 51.0088C905.109 50.0921 905.743 49.3903 906.56 48.9033C907.376 48.4092 908.314 48.1621 909.374 48.1621C910.942 48.1621 912.214 48.667 913.188 49.6768C914.169 50.6865 914.699 52.0257 914.777 53.6943L914.788 54.3066C914.788 55.4525 914.566 56.4766 914.122 57.3789C913.685 58.2812 913.055 58.9795 912.231 59.4736C911.415 59.9678 910.47 60.2148 909.396 60.2148C907.756 60.2148 906.441 59.6706 905.453 58.582C904.472 57.4863 903.981 56.029 903.981 54.21V54.0811ZM906.592 54.3066C906.592 55.5026 906.839 56.4408 907.333 57.1211C907.827 57.7943 908.515 58.1309 909.396 58.1309C910.276 58.1309 910.96 57.7871 911.447 57.0996C911.941 56.4121 912.188 55.4059 912.188 54.0811C912.188 52.9066 911.934 51.9756 911.426 51.2881C910.924 50.6006 910.241 50.2568 909.374 50.2568C908.522 50.2568 907.845 50.597 907.344 51.2773C906.842 51.9505 906.592 52.9603 906.592 54.3066ZM916.539 54.1025C916.539 52.2979 916.962 50.8584 917.807 49.7842C918.659 48.7028 919.787 48.1621 921.19 48.1621C922.515 48.1621 923.557 48.624 924.316 49.5479L924.435 48.377H926.787V59.6455C926.787 61.1709 926.311 62.374 925.358 63.2549C924.413 64.1357 923.135 64.5762 921.523 64.5762C920.671 64.5762 919.837 64.3971 919.021 64.0391C918.211 63.6882 917.595 63.2262 917.173 62.6533L918.408 61.085C919.21 62.0374 920.199 62.5137 921.373 62.5137C922.24 62.5137 922.924 62.2773 923.425 61.8047C923.926 61.3392 924.177 60.6517 924.177 59.7422V58.958C923.425 59.7959 922.422 60.2148 921.169 60.2148C919.808 60.2148 918.695 59.6742 917.828 58.5928C916.969 57.5114 916.539 56.0146 916.539 54.1025ZM919.139 54.3281C919.139 55.4954 919.375 56.4157 919.848 57.0889C920.327 57.7549 920.99 58.0879 921.835 58.0879C922.888 58.0879 923.668 57.6367 924.177 56.7344V51.6211C923.683 50.7402 922.909 50.2998 921.856 50.2998C920.997 50.2998 920.327 50.64 919.848 51.3203C919.375 52.0007 919.139 53.0033 919.139 54.3281ZM928.989 54.0811C928.989 52.9424 929.215 51.9183 929.666 51.0088C930.117 50.0921 930.751 49.3903 931.567 48.9033C932.384 48.4092 933.322 48.1621 934.382 48.1621C935.95 48.1621 937.221 48.667 938.195 49.6768C939.176 50.6865 939.706 52.0257 939.785 53.6943L939.796 54.3066C939.796 55.4525 939.574 56.4766 939.13 57.3789C938.693 58.2812 938.063 58.9795 937.239 59.4736C936.423 59.9678 935.478 60.2148 934.403 60.2148C932.763 60.2148 931.449 59.6706 930.461 58.582C929.48 57.4863 928.989 56.029 928.989 54.21V54.0811ZM931.6 54.3066C931.6 55.5026 931.847 56.4408 932.341 57.1211C932.835 57.7943 933.522 58.1309 934.403 58.1309C935.284 58.1309 935.968 57.7871 936.455 57.0996C936.949 56.4121 937.196 55.4059 937.196 54.0811C937.196 52.9066 936.942 51.9756 936.434 51.2881C935.932 50.6006 935.248 50.2568 934.382 50.2568C933.53 50.2568 932.853 50.597 932.352 51.2773C931.85 51.9505 931.6 52.9603 931.6 54.3066Z" fill="white"/>
<path d="M985.308 54.1885V60H982.59V44.3594H988.573C990.321 44.3594 991.706 44.8141 992.73 45.7236C993.762 46.6331 994.277 47.8363 994.277 49.333C994.277 50.8656 993.772 52.0579 992.763 52.9102C991.76 53.7624 990.353 54.1885 988.541 54.1885H985.308ZM985.308 52.0078H988.573C989.54 52.0078 990.278 51.7822 990.786 51.3311C991.295 50.8727 991.549 50.2139 991.549 49.3545C991.549 48.5094 991.291 47.8363 990.775 47.335C990.26 46.8265 989.551 46.5651 988.648 46.5508H985.308V52.0078ZM999.187 60H996.576V43.5H999.187V60ZM1008.98 60C1008.87 59.778 1008.77 59.4163 1008.68 58.915C1007.85 59.7816 1006.83 60.2148 1005.63 60.2148C1004.46 60.2148 1003.51 59.8818 1002.77 59.2158C1002.04 58.5498 1001.67 57.7262 1001.67 56.7451C1001.67 55.5062 1002.13 54.5573 1003.04 53.8984C1003.97 53.2324 1005.28 52.8994 1007 52.8994H1008.6V52.1367C1008.6 51.5352 1008.43 51.0553 1008.09 50.6973C1007.76 50.332 1007.24 50.1494 1006.56 50.1494C1005.96 50.1494 1005.47 50.2998 1005.09 50.6006C1004.72 50.8942 1004.53 51.2702 1004.53 51.7285H1001.92C1001.92 51.0911 1002.13 50.4967 1002.55 49.9453C1002.97 49.3867 1003.54 48.9499 1004.27 48.6348C1005 48.3197 1005.81 48.1621 1006.71 48.1621C1008.07 48.1621 1009.15 48.5059 1009.96 49.1934C1010.77 49.8737 1011.19 50.8333 1011.21 52.0723V57.3145C1011.21 58.36 1011.35 59.1943 1011.65 59.8174V60H1008.98ZM1006.12 58.1201C1006.63 58.1201 1007.11 57.9948 1007.57 57.7441C1008.02 57.4935 1008.37 57.1569 1008.6 56.7344V54.543H1007.19C1006.22 54.543 1005.5 54.7113 1005.01 55.0479C1004.52 55.3844 1004.28 55.8607 1004.28 56.4766C1004.28 56.9779 1004.44 57.3789 1004.77 57.6797C1005.11 57.9733 1005.56 58.1201 1006.12 58.1201ZM1016.36 48.377L1016.44 49.7197C1017.3 48.6813 1018.43 48.1621 1019.82 48.1621C1022.24 48.1621 1023.47 49.5479 1023.52 52.3193V60H1020.91V52.4697C1020.91 51.7321 1020.75 51.1878 1020.42 50.8369C1020.11 50.4788 1019.59 50.2998 1018.87 50.2998C1017.81 50.2998 1017.03 50.776 1016.51 51.7285V60H1013.9V48.377H1016.36ZM1038.18 56.8418C1038.18 56.3763 1037.99 56.0218 1037.6 55.7783C1037.22 55.5348 1036.59 55.32 1035.7 55.1338C1034.81 54.9476 1034.07 54.7113 1033.48 54.4248C1032.17 53.7946 1031.52 52.8815 1031.52 51.6855C1031.52 50.6829 1031.94 49.8451 1032.79 49.1719C1033.63 48.4987 1034.71 48.1621 1036.01 48.1621C1037.4 48.1621 1038.52 48.5059 1039.37 49.1934C1040.23 49.8809 1040.66 50.7725 1040.66 51.8682H1038.05C1038.05 51.3669 1037.87 50.9515 1037.49 50.6221C1037.12 50.2855 1036.63 50.1172 1036.01 50.1172C1035.44 50.1172 1034.97 50.2497 1034.6 50.5146C1034.25 50.7796 1034.07 51.1341 1034.07 51.5781C1034.07 51.9792 1034.23 52.2907 1034.57 52.5127C1034.91 52.7347 1035.59 52.9603 1036.61 53.1895C1037.64 53.4115 1038.44 53.68 1039.02 53.9951C1039.61 54.3031 1040.04 54.6755 1040.32 55.1123C1040.6 55.5492 1040.75 56.0791 1040.75 56.7021C1040.75 57.7477 1040.31 58.5964 1039.45 59.248C1038.58 59.8926 1037.45 60.2148 1036.04 60.2148C1035.09 60.2148 1034.24 60.043 1033.5 59.6992C1032.75 59.3555 1032.17 58.8828 1031.76 58.2812C1031.34 57.6797 1031.13 57.0316 1031.13 56.3369H1033.67C1033.7 56.9528 1033.94 57.429 1034.37 57.7656C1034.8 58.0951 1035.37 58.2598 1036.08 58.2598C1036.76 58.2598 1037.29 58.1309 1037.64 57.873C1038 57.6081 1038.18 57.2643 1038.18 56.8418ZM1042.54 54.0811C1042.54 52.9424 1042.77 51.9183 1043.22 51.0088C1043.67 50.0921 1044.3 49.3903 1045.12 48.9033C1045.94 48.4092 1046.87 48.1621 1047.93 48.1621C1049.5 48.1621 1050.77 48.667 1051.75 49.6768C1052.73 50.6865 1053.26 52.0257 1053.34 53.6943L1053.35 54.3066C1053.35 55.4525 1053.13 56.4766 1052.68 57.3789C1052.25 58.2812 1051.62 58.9795 1050.79 59.4736C1049.98 59.9678 1049.03 60.2148 1047.96 60.2148C1046.32 60.2148 1045 59.6706 1044.01 58.582C1043.03 57.4863 1042.54 56.029 1042.54 54.21V54.0811ZM1045.15 54.3066C1045.15 55.5026 1045.4 56.4408 1045.89 57.1211C1046.39 57.7943 1047.08 58.1309 1047.96 58.1309C1048.84 58.1309 1049.52 57.7871 1050.01 57.0996C1050.5 56.4121 1050.75 55.4059 1050.75 54.0811C1050.75 52.9066 1050.49 51.9756 1049.99 51.2881C1049.49 50.6006 1048.8 50.2568 1047.93 50.2568C1047.08 50.2568 1046.41 50.597 1045.9 51.2773C1045.4 51.9505 1045.15 52.9603 1045.15 54.3066ZM1058.33 60H1055.72V43.5H1058.33V60ZM1063.96 60H1061.35V48.377H1063.96V60ZM1061.19 45.3584C1061.19 44.9574 1061.32 44.6243 1061.57 44.3594C1061.82 44.0944 1062.19 43.9619 1062.66 43.9619C1063.13 43.9619 1063.5 44.0944 1063.76 44.3594C1064.02 44.6243 1064.14 44.9574 1064.14 45.3584C1064.14 45.7523 1064.02 46.0817 1063.76 46.3467C1063.5 46.6045 1063.13 46.7334 1062.66 46.7334C1062.19 46.7334 1061.82 46.6045 1061.57 46.3467C1061.32 46.0817 1061.19 45.7523 1061.19 45.3584ZM1066.33 54.1025C1066.33 52.3122 1066.74 50.8763 1067.57 49.7949C1068.4 48.7064 1069.52 48.1621 1070.91 48.1621C1072.14 48.1621 1073.14 48.5918 1073.9 49.4512V43.5H1076.51V60H1074.15L1074.02 58.7969C1073.24 59.7422 1072.19 60.2148 1070.89 60.2148C1069.53 60.2148 1068.43 59.667 1067.58 58.5713C1066.74 57.4756 1066.33 55.986 1066.33 54.1025ZM1068.94 54.3281C1068.94 55.5098 1069.16 56.4336 1069.61 57.0996C1070.07 57.7585 1070.72 58.0879 1071.56 58.0879C1072.62 58.0879 1073.4 57.6117 1073.9 56.6592V51.6963C1073.42 50.7653 1072.65 50.2998 1071.58 50.2998C1070.73 50.2998 1070.08 50.6364 1069.62 51.3096C1069.16 51.9756 1068.94 52.9818 1068.94 54.3281ZM1086.18 60C1086.06 59.778 1085.96 59.4163 1085.88 58.915C1085.05 59.7816 1084.03 60.2148 1082.83 60.2148C1081.66 60.2148 1080.71 59.8818 1079.97 59.2158C1079.23 58.5498 1078.86 57.7262 1078.86 56.7451C1078.86 55.5062 1079.32 54.5573 1080.24 53.8984C1081.16 53.2324 1082.48 52.8994 1084.19 52.8994H1085.79V52.1367C1085.79 51.5352 1085.62 51.0553 1085.29 50.6973C1084.95 50.332 1084.44 50.1494 1083.75 50.1494C1083.15 50.1494 1082.67 50.2998 1082.29 50.6006C1081.91 50.8942 1081.72 51.2702 1081.72 51.7285H1079.11C1079.11 51.0911 1079.32 50.4967 1079.74 49.9453C1080.16 49.3867 1080.74 48.9499 1081.46 48.6348C1082.19 48.3197 1083 48.1621 1083.9 48.1621C1085.26 48.1621 1086.35 48.5059 1087.15 49.1934C1087.96 49.8737 1088.38 50.8333 1088.4 52.0723V57.3145C1088.4 58.36 1088.55 59.1943 1088.84 59.8174V60H1086.18ZM1083.31 58.1201C1083.82 58.1201 1084.31 57.9948 1084.76 57.7441C1085.22 57.4935 1085.56 57.1569 1085.79 56.7344V54.543H1084.38C1083.42 54.543 1082.69 54.7113 1082.2 55.0479C1081.72 55.3844 1081.47 55.8607 1081.47 56.4766C1081.47 56.9779 1081.64 57.3789 1081.97 57.6797C1082.3 57.9733 1082.75 58.1201 1083.31 58.1201ZM1097.22 50.7617C1096.88 50.7044 1096.52 50.6758 1096.16 50.6758C1094.96 50.6758 1094.15 51.1341 1093.74 52.0508V60H1091.13V48.377H1093.62L1093.69 49.6768C1094.32 48.667 1095.19 48.1621 1096.31 48.1621C1096.68 48.1621 1096.99 48.2122 1097.23 48.3125L1097.22 50.7617ZM1101.65 60H1099.04V48.377H1101.65V60ZM1098.87 45.3584C1098.87 44.9574 1099 44.6243 1099.25 44.3594C1099.51 44.0944 1099.87 43.9619 1100.35 43.9619C1100.82 43.9619 1101.18 44.0944 1101.44 44.3594C1101.7 44.6243 1101.83 44.9574 1101.83 45.3584C1101.83 45.7523 1101.7 46.0817 1101.44 46.3467C1101.18 46.6045 1100.82 46.7334 1100.35 46.7334C1099.87 46.7334 1099.51 46.6045 1099.25 46.3467C1099 46.0817 1098.87 45.7523 1098.87 45.3584ZM1104.01 54.0811C1104.01 52.9424 1104.23 51.9183 1104.69 51.0088C1105.14 50.0921 1105.77 49.3903 1106.59 48.9033C1107.4 48.4092 1108.34 48.1621 1109.4 48.1621C1110.97 48.1621 1112.24 48.667 1113.21 49.6768C1114.2 50.6865 1114.73 52.0257 1114.8 53.6943L1114.82 54.3066C1114.82 55.4525 1114.59 56.4766 1114.15 57.3789C1113.71 58.2812 1113.08 58.9795 1112.26 59.4736C1111.44 59.9678 1110.5 60.2148 1109.42 60.2148C1107.78 60.2148 1106.47 59.6706 1105.48 58.582C1104.5 57.4863 1104.01 56.029 1104.01 54.21V54.0811ZM1106.62 54.3066C1106.62 55.5026 1106.87 56.4408 1107.36 57.1211C1107.85 57.7943 1108.54 58.1309 1109.42 58.1309C1110.3 58.1309 1110.99 57.7871 1111.47 57.0996C1111.97 56.4121 1112.22 55.4059 1112.22 54.0811C1112.22 52.9066 1111.96 51.9756 1111.45 51.2881C1110.95 50.6006 1110.27 50.2568 1109.4 50.2568C1108.55 50.2568 1107.87 50.597 1107.37 51.2773C1106.87 51.9505 1106.62 52.9603 1106.62 54.3066Z" fill="white"/>
<path d="M1170 60H1167.28L1160.31 48.9033V60H1157.59V44.3594H1160.31L1167.3 55.499V44.3594H1170V60ZM1172.47 54.0811C1172.47 52.9424 1172.69 51.9183 1173.14 51.0088C1173.6 50.0921 1174.23 49.3903 1175.05 48.9033C1175.86 48.4092 1176.8 48.1621 1177.86 48.1621C1179.43 48.1621 1180.7 48.667 1181.67 49.6768C1182.65 50.6865 1183.18 52.0257 1183.26 53.6943L1183.27 54.3066C1183.27 55.4525 1183.05 56.4766 1182.61 57.3789C1182.17 58.2812 1181.54 58.9795 1180.72 59.4736C1179.9 59.9678 1178.96 60.2148 1177.88 60.2148C1176.24 60.2148 1174.93 59.6706 1173.94 58.582C1172.96 57.4863 1172.47 56.029 1172.47 54.21V54.0811ZM1175.08 54.3066C1175.08 55.5026 1175.33 56.4408 1175.82 57.1211C1176.31 57.7943 1177 58.1309 1177.88 58.1309C1178.76 58.1309 1179.45 57.7871 1179.93 57.0996C1180.43 56.4121 1180.67 55.4059 1180.67 54.0811C1180.67 52.9066 1180.42 51.9756 1179.91 51.2881C1179.41 50.6006 1178.73 50.2568 1177.86 50.2568C1177.01 50.2568 1176.33 50.597 1175.83 51.2773C1175.33 51.9505 1175.08 52.9603 1175.08 54.3066ZM1192 56.8418C1192 56.3763 1191.8 56.0218 1191.42 55.7783C1191.04 55.5348 1190.4 55.32 1189.52 55.1338C1188.63 54.9476 1187.89 54.7113 1187.29 54.4248C1185.99 53.7946 1185.34 52.8815 1185.34 51.6855C1185.34 50.6829 1185.76 49.8451 1186.6 49.1719C1187.45 48.4987 1188.52 48.1621 1189.83 48.1621C1191.22 48.1621 1192.34 48.5059 1193.19 49.1934C1194.05 49.8809 1194.48 50.7725 1194.48 51.8682H1191.87C1191.87 51.3669 1191.68 50.9515 1191.31 50.6221C1190.94 50.2855 1190.44 50.1172 1189.83 50.1172C1189.25 50.1172 1188.79 50.2497 1188.42 50.5146C1188.06 50.7796 1187.88 51.1341 1187.88 51.5781C1187.88 51.9792 1188.05 52.2907 1188.39 52.5127C1188.72 52.7347 1189.4 52.9603 1190.43 53.1895C1191.45 53.4115 1192.25 53.68 1192.83 53.9951C1193.42 54.3031 1193.86 54.6755 1194.13 55.1123C1194.42 55.5492 1194.56 56.0791 1194.56 56.7021C1194.56 57.7477 1194.13 58.5964 1193.26 59.248C1192.4 59.8926 1191.26 60.2148 1189.86 60.2148C1188.91 60.2148 1188.06 60.043 1187.31 59.6992C1186.57 59.3555 1185.99 58.8828 1185.57 58.2812C1185.16 57.6797 1184.95 57.0316 1184.95 56.3369H1187.49C1187.52 56.9528 1187.75 57.429 1188.18 57.7656C1188.61 58.0951 1189.18 58.2598 1189.89 58.2598C1190.58 58.2598 1191.1 58.1309 1191.46 57.873C1191.82 57.6081 1192 57.2643 1192 56.8418ZM1196.36 54.0811C1196.36 52.9424 1196.58 51.9183 1197.04 51.0088C1197.49 50.0921 1198.12 49.3903 1198.94 48.9033C1199.75 48.4092 1200.69 48.1621 1201.75 48.1621C1203.32 48.1621 1204.59 48.667 1205.56 49.6768C1206.55 50.6865 1207.08 52.0257 1207.15 53.6943L1207.17 54.3066C1207.17 55.4525 1206.94 56.4766 1206.5 57.3789C1206.06 58.2812 1205.43 58.9795 1204.61 59.4736C1203.79 59.9678 1202.85 60.2148 1201.77 60.2148C1200.13 60.2148 1198.82 59.6706 1197.83 58.582C1196.85 57.4863 1196.36 56.029 1196.36 54.21V54.0811ZM1198.97 54.3066C1198.97 55.5026 1199.22 56.4408 1199.71 57.1211C1200.2 57.7943 1200.89 58.1309 1201.77 58.1309C1202.65 58.1309 1203.34 57.7871 1203.82 57.0996C1204.32 56.4121 1204.57 55.4059 1204.57 54.0811C1204.57 52.9066 1204.31 51.9756 1203.8 51.2881C1203.3 50.6006 1202.62 50.2568 1201.75 50.2568C1200.9 50.2568 1200.22 50.597 1199.72 51.2773C1199.22 51.9505 1198.97 52.9603 1198.97 54.3066ZM1212.64 45.5518V48.377H1214.7V50.3105H1212.64V56.7988C1212.64 57.2428 1212.73 57.5651 1212.9 57.7656C1213.08 57.959 1213.4 58.0557 1213.85 58.0557C1214.15 58.0557 1214.45 58.0199 1214.76 57.9482V59.9678C1214.17 60.1325 1213.59 60.2148 1213.04 60.2148C1211.04 60.2148 1210.03 59.1084 1210.03 56.8955V50.3105H1208.12V48.377H1210.03V45.5518H1212.64ZM1222.78 50.7617C1222.44 50.7044 1222.09 50.6758 1221.72 50.6758C1220.52 50.6758 1219.72 51.1341 1219.3 52.0508V60H1216.69V48.377H1219.19L1219.25 49.6768C1219.88 48.667 1220.75 48.1621 1221.87 48.1621C1222.24 48.1621 1222.55 48.2122 1222.79 48.3125L1222.78 50.7617ZM1223.56 54.0811C1223.56 52.9424 1223.78 51.9183 1224.23 51.0088C1224.69 50.0921 1225.32 49.3903 1226.14 48.9033C1226.95 48.4092 1227.89 48.1621 1228.95 48.1621C1230.52 48.1621 1231.79 48.667 1232.76 49.6768C1233.74 50.6865 1234.27 52.0257 1234.35 53.6943L1234.36 54.3066C1234.36 55.4525 1234.14 56.4766 1233.7 57.3789C1233.26 58.2812 1232.63 58.9795 1231.81 59.4736C1230.99 59.9678 1230.05 60.2148 1228.97 60.2148C1227.33 60.2148 1226.02 59.6706 1225.03 58.582C1224.05 57.4863 1223.56 56.029 1223.56 54.21V54.0811ZM1226.17 54.3066C1226.17 55.5026 1226.42 56.4408 1226.91 57.1211C1227.4 57.7943 1228.09 58.1309 1228.97 58.1309C1229.85 58.1309 1230.54 57.7871 1231.02 57.0996C1231.52 56.4121 1231.76 55.4059 1231.76 54.0811C1231.76 52.9066 1231.51 51.9756 1231 51.2881C1230.5 50.6006 1229.82 50.2568 1228.95 50.2568C1228.1 50.2568 1227.42 50.597 1226.92 51.2773C1226.42 51.9505 1226.17 52.9603 1226.17 54.3066ZM1243.09 56.8418C1243.09 56.3763 1242.89 56.0218 1242.51 55.7783C1242.13 55.5348 1241.49 55.32 1240.61 55.1338C1239.72 54.9476 1238.98 54.7113 1238.38 54.4248C1237.08 53.7946 1236.43 52.8815 1236.43 51.6855C1236.43 50.6829 1236.85 49.8451 1237.69 49.1719C1238.54 48.4987 1239.61 48.1621 1240.92 48.1621C1242.31 48.1621 1243.43 48.5059 1244.28 49.1934C1245.14 49.8809 1245.57 50.7725 1245.57 51.8682H1242.96C1242.96 51.3669 1242.77 50.9515 1242.4 50.6221C1242.03 50.2855 1241.53 50.1172 1240.92 50.1172C1240.34 50.1172 1239.88 50.2497 1239.51 50.5146C1239.15 50.7796 1238.97 51.1341 1238.97 51.5781C1238.97 51.9792 1239.14 52.2907 1239.48 52.5127C1239.81 52.7347 1240.49 52.9603 1241.52 53.1895C1242.54 53.4115 1243.34 53.68 1243.92 53.9951C1244.51 54.3031 1244.95 54.6755 1245.22 55.1123C1245.51 55.5492 1245.65 56.0791 1245.65 56.7021C1245.65 57.7477 1245.22 58.5964 1244.35 59.248C1243.49 59.8926 1242.35 60.2148 1240.95 60.2148C1240 60.2148 1239.15 60.043 1238.4 59.6992C1237.66 59.3555 1237.08 58.8828 1236.66 58.2812C1236.25 57.6797 1236.04 57.0316 1236.04 56.3369H1238.58C1238.61 56.9528 1238.84 57.429 1239.27 57.7656C1239.7 58.0951 1240.27 58.2598 1240.98 58.2598C1241.67 58.2598 1242.19 58.1309 1242.55 57.873C1242.91 57.6081 1243.09 57.2643 1243.09 56.8418Z" fill="white"/>
<path d="M1300.52 54.9082C1300.37 56.5768 1299.75 57.8802 1298.68 58.8184C1297.6 59.7493 1296.17 60.2148 1294.39 60.2148C1293.14 60.2148 1292.05 59.9212 1291.09 59.334C1290.15 58.7396 1289.42 57.8981 1288.9 56.8096C1288.39 55.721 1288.12 54.457 1288.1 53.0176V51.5566C1288.1 50.0814 1288.36 48.7816 1288.88 47.6572C1289.4 46.5329 1290.15 45.6663 1291.12 45.0576C1292.11 44.4489 1293.24 44.1445 1294.52 44.1445C1296.25 44.1445 1297.63 44.6136 1298.69 45.5518C1299.74 46.4899 1300.35 47.8148 1300.52 49.5264H1297.82C1297.69 48.402 1297.36 47.5928 1296.83 47.0986C1296.31 46.5973 1295.54 46.3467 1294.52 46.3467C1293.34 46.3467 1292.43 46.7799 1291.79 47.6465C1291.16 48.5059 1290.84 49.7699 1290.82 51.4385V52.8242C1290.82 54.5143 1291.12 55.8034 1291.73 56.6914C1292.34 57.5794 1293.22 58.0234 1294.39 58.0234C1295.46 58.0234 1296.26 57.7835 1296.8 57.3037C1297.33 56.8239 1297.67 56.0254 1297.82 54.9082H1300.52ZM1302.22 54.0811C1302.22 52.9424 1302.45 51.9183 1302.9 51.0088C1303.35 50.0921 1303.98 49.3903 1304.8 48.9033C1305.62 48.4092 1306.55 48.1621 1307.61 48.1621C1309.18 48.1621 1310.45 48.667 1311.43 49.6768C1312.41 50.6865 1312.94 52.0257 1313.02 53.6943L1313.03 54.3066C1313.03 55.4525 1312.81 56.4766 1312.36 57.3789C1311.93 58.2812 1311.3 58.9795 1310.47 59.4736C1309.66 59.9678 1308.71 60.2148 1307.64 60.2148C1306 60.2148 1304.68 59.6706 1303.69 58.582C1302.71 57.4863 1302.22 56.029 1302.22 54.21V54.0811ZM1304.83 54.3066C1304.83 55.5026 1305.08 56.4408 1305.57 57.1211C1306.07 57.7943 1306.75 58.1309 1307.64 58.1309C1308.52 58.1309 1309.2 57.7871 1309.69 57.0996C1310.18 56.4121 1310.43 55.4059 1310.43 54.0811C1310.43 52.9066 1310.17 51.9756 1309.67 51.2881C1309.16 50.6006 1308.48 50.2568 1307.61 50.2568C1306.76 50.2568 1306.09 50.597 1305.58 51.2773C1305.08 51.9505 1304.83 52.9603 1304.83 54.3066ZM1317.66 48.377L1317.73 49.7197C1318.59 48.6813 1319.72 48.1621 1321.12 48.1621C1323.54 48.1621 1324.77 49.5479 1324.81 52.3193V60H1322.2V52.4697C1322.2 51.7321 1322.04 51.1878 1321.72 50.8369C1321.4 50.4788 1320.88 50.2998 1320.16 50.2998C1319.11 50.2998 1318.32 50.776 1317.81 51.7285V60H1315.2V48.377H1317.66ZM1330.75 45.5518V48.377H1332.8V50.3105H1330.75V56.7988C1330.75 57.2428 1330.84 57.5651 1331.01 57.7656C1331.19 57.959 1331.5 58.0557 1331.96 58.0557C1332.26 58.0557 1332.56 58.0199 1332.87 57.9482V59.9678C1332.27 60.1325 1331.7 60.2148 1331.15 60.2148C1329.15 60.2148 1328.14 59.1084 1328.14 56.8955V50.3105H1326.23V48.377H1328.14V45.5518H1330.75ZM1341.75 60C1341.64 59.778 1341.54 59.4163 1341.45 58.915C1340.62 59.7816 1339.6 60.2148 1338.4 60.2148C1337.23 60.2148 1336.28 59.8818 1335.54 59.2158C1334.81 58.5498 1334.44 57.7262 1334.44 56.7451C1334.44 55.5062 1334.9 54.5573 1335.81 53.8984C1336.74 53.2324 1338.05 52.8994 1339.77 52.8994H1341.37V52.1367C1341.37 51.5352 1341.2 51.0553 1340.86 50.6973C1340.52 50.332 1340.01 50.1494 1339.33 50.1494C1338.73 50.1494 1338.24 50.2998 1337.86 50.6006C1337.48 50.8942 1337.29 51.2702 1337.29 51.7285H1334.68C1334.68 51.0911 1334.9 50.4967 1335.32 49.9453C1335.74 49.3867 1336.31 48.9499 1337.04 48.6348C1337.77 48.3197 1338.58 48.1621 1339.48 48.1621C1340.84 48.1621 1341.92 48.5059 1342.73 49.1934C1343.54 49.8737 1343.96 50.8333 1343.98 52.0723V57.3145C1343.98 58.36 1344.12 59.1943 1344.42 59.8174V60H1341.75ZM1338.88 58.1201C1339.4 58.1201 1339.88 57.9948 1340.33 57.7441C1340.79 57.4935 1341.14 57.1569 1341.37 56.7344V54.543H1339.96C1338.99 54.543 1338.27 54.7113 1337.78 55.0479C1337.29 55.3844 1337.05 55.8607 1337.05 56.4766C1337.05 56.9779 1337.21 57.3789 1337.54 57.6797C1337.88 57.9733 1338.33 58.1201 1338.88 58.1201ZM1351.49 58.1309C1352.14 58.1309 1352.68 57.9411 1353.11 57.5615C1353.54 57.182 1353.77 56.7129 1353.79 56.1543H1356.25C1356.23 56.8776 1356 57.5544 1355.58 58.1846C1355.16 58.8076 1354.58 59.3018 1353.86 59.667C1353.14 60.0322 1352.36 60.2148 1351.52 60.2148C1349.89 60.2148 1348.6 59.6885 1347.65 58.6357C1346.7 57.583 1346.22 56.1292 1346.22 54.2744V54.0059C1346.22 52.237 1346.69 50.8226 1347.64 49.7627C1348.58 48.6956 1349.87 48.1621 1351.51 48.1621C1352.89 48.1621 1354.01 48.5667 1354.88 49.376C1355.75 50.1781 1356.21 51.2344 1356.25 52.5449H1353.79C1353.77 51.8789 1353.54 51.3311 1353.11 50.9014C1352.68 50.4717 1352.14 50.2568 1351.49 50.2568C1350.64 50.2568 1349.99 50.5648 1349.53 51.1807C1349.07 51.7894 1348.84 52.7168 1348.83 53.9629V54.3818C1348.83 55.6423 1349.06 56.584 1349.51 57.207C1349.97 57.8229 1350.63 58.1309 1351.49 58.1309ZM1361.5 45.5518V48.377H1363.55V50.3105H1361.5V56.7988C1361.5 57.2428 1361.58 57.5651 1361.75 57.7656C1361.93 57.959 1362.25 58.0557 1362.7 58.0557C1363 58.0557 1363.31 58.0199 1363.61 57.9482V59.9678C1363.02 60.1325 1362.45 60.2148 1361.89 60.2148C1359.89 60.2148 1358.89 59.1084 1358.89 56.8955V50.3105H1356.97V48.377H1358.89V45.5518H1361.5ZM1364.74 54.0811C1364.74 52.9424 1364.97 51.9183 1365.42 51.0088C1365.87 50.0921 1366.5 49.3903 1367.32 48.9033C1368.14 48.4092 1369.07 48.1621 1370.13 48.1621C1371.7 48.1621 1372.97 48.667 1373.95 49.6768C1374.93 50.6865 1375.46 52.0257 1375.54 53.6943L1375.55 54.3066C1375.55 55.4525 1375.33 56.4766 1374.88 57.3789C1374.44 58.2812 1373.81 58.9795 1372.99 59.4736C1372.17 59.9678 1371.23 60.2148 1370.16 60.2148C1368.52 60.2148 1367.2 59.6706 1366.21 58.582C1365.23 57.4863 1364.74 56.029 1364.74 54.21V54.0811ZM1367.35 54.3066C1367.35 55.5026 1367.6 56.4408 1368.09 57.1211C1368.59 57.7943 1369.27 58.1309 1370.16 58.1309C1371.04 58.1309 1371.72 57.7871 1372.21 57.0996C1372.7 56.4121 1372.95 55.4059 1372.95 54.0811C1372.95 52.9066 1372.69 51.9756 1372.19 51.2881C1371.68 50.6006 1371 50.2568 1370.13 50.2568C1369.28 50.2568 1368.6 50.597 1368.1 51.2773C1367.6 51.9505 1367.35 52.9603 1367.35 54.3066Z" fill="white"/>
<g filter="url(#filter0_d)">
<path d="M65 0H238V76C238 87.0457 229.046 96 218 96H85C73.9543 96 65 87.0457 65 76V0Z" fill="white"/>
</g>
<g clip-path="url(#clip0)">
<path fill-rule="evenodd" clip-rule="evenodd" d="M151.001 8.29767C161.53 8.29784 171.628 12.4804 179.073 19.9252C186.519 27.3701 190.702 37.4675 190.703 47.9964C190.703 53.2102 189.677 58.3731 187.681 63.1902C185.686 68.0072 182.762 72.3842 179.075 76.0711C175.389 79.7581 171.012 82.6828 166.195 84.6782C161.378 86.6737 156.215 87.7008 151.001 87.701C140.47 87.7003 130.372 83.5168 122.926 76.0708C115.48 68.6248 111.297 58.5262 111.298 47.9964C111.299 37.4675 115.482 27.3703 122.928 19.9256C130.373 12.4808 140.471 8.29819 151.001 8.29767Z" fill="#235032" stroke="white" stroke-width="0.903" stroke-miterlimit="22.926"/>
<path d="M151.001 11.3318C160.726 11.3313 170.053 15.1937 176.93 22.0696C183.808 28.9455 187.672 38.2715 187.673 47.9963C187.673 57.722 183.809 67.0493 176.932 73.9264C170.054 80.8035 160.727 84.6671 151.001 84.6675C141.275 84.667 131.948 80.8031 125.071 73.926C118.194 67.0488 114.331 57.7217 114.331 47.9963C114.331 43.1812 115.28 38.4134 117.123 33.9649C118.966 29.5164 121.667 25.4744 125.072 22.0698C128.477 18.6652 132.52 15.9646 136.968 14.1221C141.417 12.2797 146.185 11.3315 151.001 11.3318Z" stroke="white" stroke-width="2.71" stroke-miterlimit="22.926"/>
<path d="M156.64 21.4156L155.735 21.2845L155.525 20.2874L153.846 20.0384L153.361 20.9308L152.469 20.7991L154.712 16.8772L155.591 17.0089L156.64 21.4156ZM155.355 19.5399L155 17.9132L154.213 19.3693L155.355 19.5399Z" fill="#FEFEFE"/>
<path d="M146.696 21.1106L146.367 16.9134L148.138 16.7817C148.47 16.7364 148.808 16.7498 149.135 16.8212C149.341 16.886 149.52 17.0148 149.647 17.1887C149.794 17.3713 149.877 17.5972 149.883 17.8315C149.92 18.1202 149.845 18.4121 149.674 18.6475C149.462 18.8755 149.181 19.0275 148.874 19.0802C149.051 19.1603 149.214 19.2664 149.359 19.395C149.549 19.5975 149.725 19.8123 149.886 20.0378L150.461 20.8209L149.452 20.9012L148.782 20.0352C148.533 19.7203 148.35 19.5234 148.284 19.4424C148.212 19.3698 148.12 19.3197 148.02 19.2982C147.88 19.2593 147.732 19.2503 147.588 19.2718L147.417 19.285L147.549 21.0428L146.696 21.1106ZM147.366 18.6317L147.995 18.5922C148.244 18.586 148.491 18.5463 148.73 18.4743C148.822 18.4394 148.901 18.3748 148.953 18.2905C149.004 18.1846 149.023 18.0658 149.006 17.9494C149.009 17.8882 148.999 17.8269 148.977 17.77C148.954 17.7131 148.919 17.6619 148.874 17.6201C148.782 17.5314 148.66 17.48 148.533 17.4759C148.467 17.4759 148.257 17.489 147.929 17.5154L147.271 17.5549L147.366 18.6317Z" fill="#FEFEFE"/>
<path d="M158.984 22.0576L160.323 18.1094L161.133 18.3853L160.021 21.6645L162.015 22.3461L161.792 23.0152L158.984 22.0576Z" fill="#FEFEFE"/>
<path d="M139.473 18.7449L140.286 18.4953L140.958 20.6858C141.076 21.027 141.155 21.2496 141.181 21.3444C141.221 21.4215 141.277 21.4893 141.345 21.5435C141.414 21.5977 141.492 21.6371 141.576 21.6592C141.761 21.7138 141.958 21.7092 142.14 21.646C142.324 21.6011 142.489 21.5003 142.612 21.3576C142.69 21.2319 142.726 21.0853 142.717 20.938C142.672 20.7035 142.615 20.4714 142.546 20.2426L141.847 18.0099L142.66 17.761L143.319 19.8856C143.433 20.222 143.512 20.5691 143.555 20.9216C143.582 21.1174 143.555 21.3171 143.476 21.4985C143.402 21.688 143.274 21.852 143.109 21.9707C142.901 22.1503 142.652 22.2765 142.384 22.3382C142.094 22.4417 141.787 22.4864 141.479 22.4699C141.267 22.4612 141.062 22.3927 140.887 22.2724C140.733 22.1801 140.606 22.0487 140.519 21.8917C140.35 21.5754 140.217 21.2409 140.124 20.8946L139.473 18.7449Z" fill="#FEFEFE"/>
<path d="M164.089 24.1816L166.306 20.5995L168.941 22.2394L168.573 22.8427L166.66 21.6632L166.159 22.4634L167.946 23.5632L167.565 24.1685L165.781 23.0666L165.178 24.0367L167.159 25.2703L166.791 25.8736L164.089 24.1816Z" fill="#FEFEFE"/>
<path d="M136.644 24.9298L134.991 21.8502L133.89 22.4429L133.56 21.8133L136.498 20.2393L136.828 20.8689L135.739 21.4616L137.391 24.5438L136.644 24.9298Z" fill="#FEFEFE"/>
<path d="M168.596 27.3324L169.123 26.7818L172.613 26.2832L171.179 24.945L171.665 24.4332L173.908 26.5453L173.447 27.0175L169.842 27.5286L171.573 29.1553L171.088 29.6638L168.596 27.3324Z" fill="#FEFEFE"/>
<path d="M134.193 26.5624L133.524 27.192L132.593 26.7481L131.36 27.9007L131.77 28.8319L131.111 29.4484L129.419 25.2512L130.078 24.6479L134.193 26.5624ZM131.911 26.405L130.429 25.6707L131.071 27.192L131.911 26.405Z" fill="#FEFEFE"/>
<path d="M174.773 34.7587L174.274 33.9967L174.878 33.157L173.947 31.7423L172.963 31.9912L172.464 31.2306L176.885 30.2993L177.384 31.033L174.773 34.7587ZM175.311 32.5418L176.307 31.2042L174.681 31.5717L175.311 32.5418Z" fill="#FEFEFE"/>
<path d="M127.635 34.0565L124.199 31.6303L124.671 30.9612L127.964 31.1712L125.669 29.5445L126.13 28.9017L129.564 31.3286L129.065 32.0235L125.838 31.8134L128.094 33.4138L127.635 34.0565Z" fill="#FEFEFE"/>
<path fill-rule="evenodd" clip-rule="evenodd" d="M121.598 46.2024C122.074 46.2024 122.531 46.3913 122.868 46.7276C123.205 47.0639 123.395 47.5202 123.396 47.9964C123.397 48.2329 123.35 48.467 123.26 48.6855C123.169 48.904 123.037 49.1025 122.87 49.2698C122.702 49.437 122.504 49.5696 122.285 49.6601C122.067 49.7506 121.833 49.7971 121.596 49.797C121.36 49.7972 121.126 49.7507 120.907 49.6603C120.688 49.5699 120.49 49.4372 120.323 49.27C120.155 49.1028 120.023 48.9042 119.932 48.6857C119.842 48.4671 119.795 48.2329 119.796 47.9964C119.797 47.5195 119.987 47.0626 120.326 46.7262C120.664 46.3897 121.121 46.2013 121.598 46.2024Z" fill="white" stroke="white" stroke-width="0.723" stroke-miterlimit="22.926"/>
<path d="M127.745 66.7037C127.997 66.4393 128.307 66.2364 128.65 66.111C128.872 66.0269 129.109 65.9875 129.346 65.995C129.567 65.9941 129.786 66.039 129.989 66.1268C130.281 66.2512 130.541 66.4394 130.75 66.6774C130.944 66.8718 131.098 67.1031 131.201 67.3577C131.305 67.6123 131.356 67.885 131.353 68.1598C131.289 68.7466 131.003 69.2866 130.552 69.668C130.355 69.8794 130.118 70.0497 129.854 70.1691C129.591 70.2884 129.306 70.3545 129.017 70.3635C128.745 70.3545 128.477 70.2892 128.231 70.1718C127.985 70.0544 127.766 69.8874 127.588 69.6812C127.389 69.4867 127.232 69.2538 127.126 68.9967C127.02 68.7396 126.967 68.4636 126.971 68.1855C127.025 67.6091 127.303 67.0767 127.745 66.7037ZM128.362 67.3333C128.061 67.577 127.861 67.9224 127.798 68.3041C127.782 68.4616 127.801 68.6206 127.853 68.7701C127.905 68.9195 127.989 69.0558 128.1 69.1695C128.204 69.2913 128.335 69.3869 128.483 69.4484C128.631 69.51 128.791 69.5358 128.951 69.5238C129.345 69.4899 129.711 69.3068 129.974 69.0121C130.268 68.766 130.471 68.429 130.552 68.0545C130.564 67.892 130.539 67.729 130.48 67.5771C130.421 67.4252 130.329 67.2883 130.211 67.1759C130.111 67.0564 129.983 66.9622 129.84 66.9006C129.696 66.8391 129.54 66.812 129.385 66.8216C128.989 66.8502 128.622 67.0342 128.362 67.3333Z" fill="white"/>
<path d="M174.091 69.9638L170.93 67.2484L171.493 66.6056L174.117 68.8619L175.481 67.2616L176.02 67.7226L174.091 69.9638Z" fill="white"/>
<path d="M132.709 74.1161L134.844 70.4827L136.394 71.3902C136.686 71.5443 136.948 71.7485 137.168 71.9935C137.305 72.1605 137.38 72.3702 137.378 72.5862C137.396 72.8202 137.336 73.0535 137.208 73.2501C137.073 73.5022 136.848 73.6943 136.578 73.7881C136.275 73.8586 135.956 73.8259 135.673 73.6953C135.773 73.8613 135.844 74.0433 135.883 74.2334C135.921 74.5074 135.943 74.7833 135.949 75.0599L135.975 76.0307L135.096 75.5196L135.042 74.4197C135.032 74.1642 135.006 73.9094 134.965 73.6571C134.945 73.5555 134.9 73.4607 134.833 73.3818C134.738 73.2687 134.622 73.1752 134.492 73.1065L134.334 73.0281L133.443 74.5515L132.709 74.1161ZM134.676 72.4631L135.227 72.7779C135.435 72.924 135.665 73.0352 135.909 73.1072C136.001 73.1228 136.095 73.1183 136.184 73.094C136.291 73.0393 136.379 72.9522 136.433 72.845C136.503 72.7461 136.531 72.6235 136.512 72.5039C136.485 72.3789 136.415 72.2674 136.314 72.1891C136.261 72.1496 136.078 72.0317 135.787 71.8598L135.21 71.5305L134.676 72.4631Z" fill="white"/>
<path d="M170.752 73.0664L169.99 73.5781L169.153 72.9742L167.736 73.9054L167.985 74.8894L167.224 75.3879L166.293 70.9674L167.027 70.4821L170.752 73.0664ZM168.536 72.5395L167.198 71.545L167.565 73.1718L168.536 72.5395Z" fill="white"/>
<path d="M140.127 77.7918L141.374 73.7651L142.184 74.0141L140.94 78.0414L140.127 77.7918Z" fill="white"/>
<path d="M159.96 78.4676L158.531 74.5061L159.291 74.2308L161.889 76.2771L160.931 73.6276L161.679 73.3641L163.111 77.3262L162.31 77.6147L159.752 75.5948L160.695 78.1923L159.96 78.4676Z" fill="white"/>
<path d="M147.825 77.8959L147.901 77.1879L149.711 77.398L149.513 79.0636C149.269 79.2362 148.994 79.3607 148.703 79.4304C148.361 79.5217 148.006 79.5485 147.654 79.5094C147.253 79.4726 146.869 79.3323 146.539 79.1024C146.256 78.8746 146.039 78.576 145.909 78.237C145.788 77.8649 145.753 77.4703 145.805 77.0825C145.835 76.6766 145.976 76.2866 146.211 75.9543C146.415 75.6302 146.726 75.3879 147.09 75.2694C147.42 75.1444 147.777 75.1083 148.126 75.1647C148.556 75.1888 148.967 75.3548 149.293 75.6369C149.566 75.8894 149.731 76.237 149.754 76.6077L148.889 76.663C148.854 76.463 148.758 76.2788 148.614 76.1361C148.451 75.996 148.247 75.9138 148.033 75.9023C147.869 75.8726 147.7 75.8795 147.539 75.9225C147.378 75.9656 147.229 76.0437 147.101 76.1513C146.834 76.4164 146.675 76.772 146.656 77.1484C146.582 77.5502 146.657 77.965 146.867 78.3154C146.963 78.4477 147.087 78.5576 147.229 78.6372C147.372 78.7168 147.531 78.7643 147.694 78.7764C147.879 78.7974 148.066 78.7795 148.244 78.7237C148.408 78.682 148.567 78.6203 148.716 78.54L148.782 78.0019L147.825 77.8959Z" fill="white"/>
<path d="M154.29 79.4435L153.803 75.2595L154.643 75.1548L155.127 79.3388L154.29 79.4435Z" fill="white"/>
<path d="M136.327 56.3972V43.307C136.332 43.053 136.269 42.8021 136.145 42.5807C136.02 42.3592 135.838 42.1752 135.619 42.0478C135.058 41.7235 134.417 41.5637 133.769 41.5867C133.441 41.5818 133.114 41.6262 132.798 41.7185C132.514 41.7981 132.244 41.9221 131.998 42.086C131.784 42.2268 131.598 42.4053 131.448 42.6128C131.313 42.8202 131.24 43.0613 131.237 43.3083V56.3972H129.403V43.1232C129.396 42.6861 129.519 42.2568 129.757 41.8903C129.978 41.5027 130.294 41.1777 130.676 40.9459C131.096 40.6756 131.555 40.4721 132.038 40.3427C132.605 40.207 133.186 40.1407 133.769 40.1451C134.892 40.0826 136.008 40.3616 136.97 40.9453C137.342 41.212 137.64 41.5685 137.837 41.9814C138.034 42.3943 138.123 42.8503 138.097 43.307V56.3972H136.327Z" fill="white"/>
<path d="M141.167 49.5889V56.3968H139.333V43.3454C139.316 42.8835 139.417 42.4247 139.625 42.0121C139.833 41.5994 140.143 41.2463 140.525 40.9857C141.468 40.3785 142.579 40.0846 143.699 40.146C144.836 40.0705 145.964 40.3953 146.887 41.064C147.253 41.3575 147.546 41.7314 147.744 42.1567C147.941 42.582 148.038 43.0471 148.027 43.516V56.3968H146.257V49.5889H141.167ZM146.257 43.3059C146.261 43.0557 146.183 42.8111 146.033 42.6104C145.864 42.3948 145.66 42.2087 145.43 42.0598C145.166 41.9073 144.884 41.7883 144.59 41.7055C144.299 41.6285 144 41.5889 143.698 41.5876C143.393 41.5881 143.089 41.6277 142.794 41.7055C142.505 41.7908 142.228 41.9097 141.967 42.0598C141.745 42.2053 141.554 42.3923 141.403 42.6104C141.25 42.8099 141.167 43.0544 141.167 43.3059V47.9753H146.257V43.3059Z" fill="white"/>
<path d="M154.993 56.3968V43.2539C155.011 43.0137 154.969 42.7727 154.871 42.5529C154.772 42.333 154.621 42.1411 154.429 41.9947C154.015 41.7178 153.524 41.5759 153.026 41.5883C152.522 41.5644 152.024 41.7072 151.609 41.9947C151.414 42.1381 151.258 42.3291 151.157 42.5494C151.056 42.7698 151.013 43.0123 151.032 43.2539V56.3968H149.263V43.188C149.223 42.7471 149.293 42.3032 149.467 41.8959C149.64 41.4886 149.912 41.1306 150.258 40.854C151.058 40.3334 152.005 40.0849 152.958 40.1453C153.576 40.1339 154.19 40.2408 154.768 40.4601C155.247 40.6538 155.649 41.0007 155.911 41.4467C156.181 40.9931 156.597 40.6447 157.091 40.4588C157.673 40.2372 158.292 40.1303 158.915 40.144C159.86 40.0863 160.8 40.3248 161.604 40.8263C161.935 41.1182 162.194 41.484 162.358 41.8941C162.522 42.3043 162.587 42.7473 162.548 43.1874V56.3968H160.778V43.2539C160.795 43.015 160.754 42.7754 160.658 42.556C160.562 42.3366 160.414 42.1439 160.227 41.9947C159.8 41.7106 159.295 41.5684 158.783 41.5883C158.293 41.5759 157.811 41.718 157.406 41.9947C157.209 42.1369 157.051 42.3272 156.947 42.5475C156.843 42.7678 156.797 43.0109 156.814 43.2539V56.3968H154.993Z" fill="white"/>
<path d="M165.592 49.5889V56.3968H163.757V43.3454C163.741 42.8835 163.841 42.4247 164.049 42.0121C164.258 41.5994 164.567 41.2463 164.949 40.9857C165.892 40.3785 167.003 40.0846 168.123 40.146C169.261 40.0705 170.388 40.3953 171.311 41.064C171.677 41.3575 171.97 41.7314 172.168 42.1567C172.366 42.582 172.463 43.0471 172.451 43.516V56.3968H170.681V49.5889H165.592ZM170.681 43.3059C170.686 43.0557 170.607 42.8111 170.458 42.6104C170.288 42.3948 170.084 42.2087 169.854 42.0598C169.59 41.9073 169.308 41.7883 169.015 41.7055C168.724 41.6285 168.424 41.5889 168.123 41.5876C167.817 41.5881 167.513 41.6277 167.218 41.7055C166.929 41.7908 166.652 41.9097 166.391 42.0598C166.17 42.2053 165.978 42.3923 165.827 42.6104C165.674 42.8099 165.592 43.0544 165.592 43.3059V47.9753H170.681V43.3059Z" fill="white"/>
<path fill-rule="evenodd" clip-rule="evenodd" d="M179.714 46.2024C179.95 46.2021 180.184 46.2484 180.402 46.3386C180.621 46.4287 180.819 46.561 180.986 46.7278C181.153 46.8946 181.286 47.0928 181.377 47.3109C181.467 47.529 181.514 47.7628 181.514 47.999C181.515 48.2355 181.468 48.4698 181.378 48.6883C181.287 48.9068 181.155 49.1054 180.987 49.2726C180.82 49.4399 180.622 49.5725 180.403 49.6629C180.185 49.7533 179.95 49.7998 179.714 49.7996C179.477 49.7997 179.243 49.7532 179.025 49.6627C178.806 49.5723 178.608 49.4396 178.441 49.2724C178.273 49.1052 178.141 48.9066 178.05 48.6881C177.96 48.4697 177.914 48.2355 177.914 47.999C177.914 47.7629 177.961 47.5291 178.051 47.3109C178.142 47.0928 178.274 46.8947 178.442 46.7278C178.609 46.561 178.807 46.4287 179.025 46.3386C179.244 46.2484 179.478 46.2021 179.714 46.2024Z" fill="white" stroke="white" stroke-width="0.723" stroke-miterlimit="22.926"/>
<path d="M170.57 39.2186C171.177 39.5314 171.757 39.8933 172.304 40.3007C172.78 40.6517 173.197 41.0756 173.541 41.5566C173.78 41.8905 173.928 42.2801 173.973 42.6881C174.573 42.6387 175.171 42.5932 175.771 42.5471C175.707 41.8278 175.454 41.138 175.04 40.547C174.586 39.9045 174.033 39.3388 173.4 38.8715C172.771 38.401 172.104 37.9825 171.407 37.6202C170.332 37.0661 169.214 36.599 168.065 36.2233C162.536 34.4524 157.132 33.9577 151.344 33.8688C145.477 33.9116 140.031 34.3957 134.436 36.2464C132.581 36.812 130.841 37.6999 129.294 38.8695C128.738 39.3027 128.266 39.8353 127.903 40.4403C127.779 40.6761 127.284 41.8964 127.53 42.1092C127.56 42.0901 128.041 40.8045 128.173 40.6076C128.568 40.0822 129.046 39.6249 129.589 39.2535C131.159 38.2498 132.875 37.4933 134.675 37.0103C140.263 35.5055 145.552 35.1834 151.321 35.2888C156.945 35.5153 162.136 36.112 167.485 37.9231C168.54 38.2899 169.57 38.7226 170.57 39.2186Z" fill="white"/>
<path d="M131.712 59.4138C131.094 59.1239 130.502 58.7827 129.941 58.3936C129.452 58.0614 129.018 57.654 128.656 57.1864C128.408 56.8601 128.247 56.4766 128.187 56.0714C127.587 56.1373 126.989 56.2091 126.393 56.2743C126.483 56.9924 126.761 57.674 127.199 58.25C127.676 58.8754 128.248 59.4211 128.895 59.8669C129.542 60.3156 130.225 60.7093 130.937 61.0438C132.031 61.5589 133.165 61.9854 134.328 62.3195C139.915 63.8902 145.339 64.1879 151.122 64.0674C156.984 63.8112 162.413 63.1355 167.935 61.08C169.767 60.4476 171.473 59.4974 172.975 58.2731C173.518 57.8211 173.97 57.2719 174.311 56.6536C174.428 56.4112 174.877 55.1744 174.622 54.9683C174.596 54.9907 174.161 56.2927 174.035 56.4929C173.66 57.0329 173.199 57.508 172.671 57.8997C171.136 58.9594 169.448 59.7778 167.666 60.3266C162.137 62.0317 156.86 62.546 151.092 62.6475C145.464 62.6251 140.257 62.2154 134.846 60.6019C133.778 60.2737 132.731 59.8777 131.714 59.4164" fill="white"/>
</g>
<defs>
<filter id="filter0_d" x="61" y="-2" width="181" height="104" filterUnits="userSpaceOnUse" color-interpolation-filters="sRGB">
<feFlood flood-opacity="0" result="BackgroundImageFix"/>
<feColorMatrix in="SourceAlpha" type="matrix" values="0 0 0 0 0 0 0 0 0 0 0 0 0 0 0 0 0 0 127 0"/>
<feOffset dy="2"/>
<feGaussianBlur stdDeviation="2"/>
<feColorMatrix type="matrix" values="0 0 0 0 0 0 0 0 0 0 0 0 0 0 0 0 0 0 0.25 0"/>
<feBlend mode="normal" in2="BackgroundImageFix" result="effect1_dropShadow"/>
<feBlend mode="normal" in="SourceGraphic" in2="effect1_dropShadow" result="shape"/>
</filter>
<clipPath id="clip0">
<rect width="80" height="80" fill="white" transform="translate(111 8)"/>
</clipPath>
</defs>
</svg>
