<?xml version="1.0" encoding="utf-8"?>
<!-- Generator: Adobe Illustrator 16.0.3, SVG Export Plug-In . SVG Version: 6.00 Build 0)  -->
<!DOCTYPE svg PUBLIC "-//W3C//DTD SVG 1.1//EN" "http://www.w3.org/Graphics/SVG/1.1/DTD/svg11.dtd">
<svg version="1.1" id="Capa_1" xmlns="http://www.w3.org/2000/svg" xmlns:xlink="http://www.w3.org/1999/xlink" x="0px" y="0px"
	 width="1440px" height="283px" viewBox="0 -184 1440 283" enable-background="new 0 -184 1440 283" xml:space="preserve">
<path fill="#235032" fill-opacity="0.7" d="M0,99c561.613,0,366.526,0,764.171,0c397.649,0,553.409,0,675.829,0
	C1400-46.222,796.149,37.938,364.5,8.558C145-6.383,0-14.746,0,99z"/>
<g>
	<g>
		<defs>
			
				<rect id="SVGID_1_" x="43.487" y="-214.311" transform="matrix(-0.9776 0.2105 -0.2105 -0.9776 397.7208 -102.9526)" width="321.705" height="368.001"/>
		</defs>
		<clipPath id="SVGID_2_">
			<use xlink:href="#SVGID_1_"  overflow="visible"/>
		</clipPath>
		<g clip-path="url(#SVGID_2_)">
			<path fill="#791113" d="M60.229-116.468c-11.1-0.739-22.095,6.635-32.294,10.082c-2.614,0.563-2.106,5.46,1.159,5.383
				c10.585-1.654,23.004-4.953,32.294-10.083C63.223-112.732,62.45-116.32,60.229-116.468z"/>
			<path fill="#791113" d="M126.445-113.829c-9.122-6.797-21.011-6.115-30.292-3.49c-2.091,0.45-1.319,4.039,0.772,3.588
				c5.357-0.527,10.32-0.344,15.412,0.437c4.569,0.893,8.745,2.497,13.313,3.391C127.476-109.044,128.4-112.373,126.445-113.829z"/>
			<path fill="#791113" d="M191.388-79c-3.251-4.932-8.464-8.816-13.419-11.504c-4.561-3.399-10.039-5.974-14.866-8.064
				c-1.826-0.858-2.879,1.872-1.053,2.73c4.955,2.688,9.516,6.087,13.555,9.598c4.561,3.398,8.334,8.218,12.895,11.616
				C190.583-72.569,193.076-76.235,191.388-79z"/>
			<path fill="#791113" d="M209.828-44.172c-2.213-2.652-5.358,0.528-3.146,3.181c1.691,2.765,4.031,6.015,5.721,8.781
				c1.947,3.961,2.325,8.26,4.666,11.512c0.909,1.68,3.523,1.118,3.66-0.789C221.926-28.629,214.381-38.268,209.828-44.172z"/>
			<path fill="#791113" d="M118.364-34.491c-8.252,7.409-13.383,19.152-16.945,30.558c-1.053,2.73,3.122,4.334,3.652,1.716
				c4.342-10.321,10.639-19.187,16.285-28.537C122.933-33.597,120.197-36.137,118.364-34.491z"/>
			<path fill="#791113" d="M141.741-75.82c-7.32,1.576-14.14,10.554-17.557,17.548c-1.577,2.842,2.333,5.755,3.909,2.913
				c1.971-3.554,4.592-6.621,7.343-9.091c2.751-2.47,6.153-4.454,8.775-7.521C145.522-73.505,143.31-76.158,141.741-75.82z"/>
			<path fill="#791113" d="M206.393-116.023c-4.183,0.9-7.979,3.595-12.033,5.094c-4.971,2.321-10.07,4.045-14.261,7.451
				c-2.356,1.759-0.409,5.72,2.076,4.559c4.448-2.209,9.548-3.933,14.124-5.544c4.054-1.499,9.282-2.625,12.297-6.403
				C210.954-112.625,209.006-116.586,206.393-116.023z"/>
			<path fill="#791113" d="M251.637-132.023c-7.184-0.331-15.162,3.265-22.354,5.439c-2.613,0.562-1.713,4.749,0.901,4.186
				c7.448-0.978,15.677-0.872,22.61-4.242C255.28-127.801,254.379-131.988,251.637-132.023z"/>
			<path fill="#791113" d="M300.904-139.502c-3.918-0.408-7.448,0.978-11.108,1.766s-7.844,1.689-11.375,3.075
				c-2.613,0.563-1.584,5.347,1.03,4.785c3.66-0.788,7.845-1.689,11.632-1.879c3.659-0.788,7.448-0.978,10.852-2.962
				C304.025-135.168,303.252-138.756,300.904-139.502z"/>
			<path fill="#791113" d="M344.684-147.051c-8.471-6.312-16.813-12.025-25.549-17.028c-6.258-3.659-16.032-10.941-22.7-8.879
				c-2.614,0.563-3.933,4.602-1.722,7.254c4.426,5.305,12.518,7.318,17.996,9.893c6.781,3.546,13.819,8.289,20.858,13.031
				c-9.426,7.036-18.466,15.866-27.112,23.985c-2.75,2.47,0.758,8.598,4.16,6.614c12.04-7.599,21.482-19.644,34.432-25.562
				C348.055-139.016,347.42-144.511,344.684-147.051z"/>
		</g>
	</g>
</g>
</svg>
