<?xml version="1.0" encoding="utf-8"?>
<!-- Generator: Adobe Illustrator 16.0.3, SVG Export Plug-In . SVG Version: 6.00 Build 0)  -->
<!DOCTYPE svg PUBLIC "-//W3C//DTD SVG 1.1//EN" "http://www.w3.org/Graphics/SVG/1.1/DTD/svg11.dtd">
<svg version="1.1" id="Capa_1" xmlns="http://www.w3.org/2000/svg" xmlns:xlink="http://www.w3.org/1999/xlink" x="0px" y="0px"
	 width="181px" height="102px" viewBox="0 0 181 102" enable-background="new 0 0 181 102" xml:space="preserve">
<g>
	<path fill="#FFFFFF" d="M4,0h173v76c0,11.046-8.954,20-20,20H24C12.954,96,4,87.046,4,76V0z"/>
</g>
<g>
	<g>
		<defs>
			<rect id="SVGID_1_" x="50" y="9" width="80" height="80"/>
		</defs>
		<clipPath id="SVGID_2_">
			<use xlink:href="#SVGID_1_"  overflow="visible"/>
		</clipPath>
		<g clip-path="url(#SVGID_2_)">
			<path fill="#235032" stroke="#FFFFFF" stroke-width="0.903" stroke-miterlimit="22.926" d="M90,9.298
				c10.529,0,20.627,4.183,28.072,11.628c7.447,7.444,11.629,17.541,11.631,28.07c0,5.215-1.027,10.377-3.021,15.193
				c-1.996,4.818-4.92,9.195-8.607,12.882c-3.686,3.687-8.063,6.611-12.879,8.606c-4.818,1.996-9.98,3.023-15.195,3.023
				C79.47,88.7,69.371,84.517,61.925,77.07c-7.445-7.445-11.628-17.544-11.628-28.074c0.001-10.529,4.185-20.626,11.63-28.07
				C69.373,13.48,79.471,9.299,90,9.298z"/>
			<path fill="none" stroke="#FFFFFF" stroke-width="2.71" stroke-miterlimit="22.926" d="M90,12.332
				c9.727-0.001,19.053,3.861,25.93,10.738c6.877,6.875,10.742,16.201,10.744,25.926c-0.002,9.727-3.865,19.053-10.742,25.93
				S99.727,85.667,90,85.668c-9.726-0.001-19.053-3.865-25.93-10.742c-6.876-6.877-10.74-16.204-10.739-25.93
				c0-4.814,0.949-9.582,2.792-14.031c1.843-4.448,4.544-8.49,7.949-11.895c3.405-3.405,7.447-6.105,11.896-7.948
				S85.185,12.332,90,12.332z"/>
			<path fill="#FEFEFE" d="M95.639,22.416l-0.904-0.131l-0.209-0.998l-1.68-0.248l-0.486,0.892l-0.891-0.132l2.242-3.922
				l0.879,0.132L95.639,22.416z M94.355,20.54L94,18.913l-0.787,1.456L94.355,20.54z"/>
			<path fill="#FEFEFE" d="M85.696,22.111l-0.329-4.197l1.771-0.133c0.332-0.045,0.67-0.031,0.997,0.04
				c0.206,0.065,0.385,0.193,0.512,0.368c0.147,0.182,0.23,0.408,0.236,0.643c0.037,0.288-0.038,0.58-0.208,0.815
				c-0.212,0.228-0.494,0.38-0.8,0.433c0.176,0.08,0.34,0.187,0.485,0.314c0.189,0.203,0.365,0.418,0.527,0.643l0.575,0.783
				l-1.01,0.081l-0.669-0.866c-0.249-0.314-0.433-0.512-0.499-0.593c-0.072-0.073-0.164-0.122-0.263-0.144
				c-0.141-0.039-0.289-0.049-0.433-0.027l-0.17,0.014l0.132,1.758L85.696,22.111z M86.365,19.632l0.629-0.04
				c0.249-0.006,0.496-0.045,0.734-0.117c0.093-0.035,0.171-0.1,0.224-0.184c0.051-0.106,0.069-0.225,0.052-0.342
				c0.004-0.061-0.006-0.123-0.029-0.18s-0.058-0.107-0.103-0.149c-0.092-0.089-0.213-0.14-0.341-0.144
				c-0.066,0-0.275,0.012-0.604,0.039l-0.658,0.039L86.365,19.632z"/>
			<path fill="#FEFEFE" d="M97.984,23.058l1.338-3.948l0.811,0.275l-1.111,3.279l1.992,0.682l-0.223,0.67L97.984,23.058z"/>
			<path fill="#FEFEFE" d="M78.472,19.744l0.813-0.249l0.672,2.19c0.118,0.342,0.197,0.564,0.223,0.658
				c0.04,0.078,0.096,0.146,0.165,0.199c0.068,0.055,0.146,0.094,0.23,0.116c0.185,0.055,0.382,0.05,0.564-0.013
				c0.184-0.045,0.349-0.146,0.472-0.289c0.077-0.125,0.114-0.271,0.104-0.42c-0.045-0.234-0.102-0.467-0.17-0.695l-0.699-2.232
				l0.813-0.248l0.658,2.124c0.114,0.337,0.193,0.683,0.236,1.036c0.028,0.195,0,0.395-0.078,0.576
				c-0.075,0.189-0.202,0.354-0.368,0.473c-0.208,0.18-0.457,0.306-0.725,0.367c-0.29,0.104-0.597,0.148-0.905,0.132
				c-0.212-0.009-0.418-0.077-0.593-0.197c-0.154-0.093-0.281-0.224-0.368-0.381c-0.169-0.316-0.302-0.651-0.395-0.997
				L78.472,19.744z"/>
			<path fill="#FEFEFE" d="M103.09,25.182l2.217-3.582l2.635,1.64l-0.369,0.604l-1.912-1.18l-0.502,0.8l1.787,1.1l-0.381,0.605
				l-1.783-1.102l-0.604,0.971l1.98,1.233l-0.367,0.603L103.09,25.182z"/>
			<path fill="#FEFEFE" d="M75.644,25.93l-1.652-3.08l-1.102,0.594l-0.33-0.63l2.938-1.574l0.329,0.63l-1.089,0.592l1.653,3.083
				L75.644,25.93z"/>
			<path fill="#FEFEFE" d="M107.596,28.332l0.527-0.551l3.49-0.498l-1.434-1.338l0.484-0.512l2.244,2.111l-0.461,0.473l-3.605,0.512
				l1.73,1.626l-0.484,0.509L107.596,28.332z"/>
			<path fill="#FEFEFE" d="M73.193,27.563l-0.669,0.629l-0.931-0.443L70.359,28.9l0.41,0.932l-0.659,0.616l-1.692-4.196l0.659-0.604
				L73.193,27.563z M70.911,27.404l-1.482-0.733l0.643,1.521L70.911,27.404z"/>
			<path fill="#FEFEFE" d="M113.773,35.759l-0.5-0.763l0.604-0.84l-0.93-1.414l-0.984,0.249l-0.498-0.761l4.42-0.932l0.498,0.734
				L113.773,35.759z M114.311,33.542l0.996-1.338l-1.625,0.368L114.311,33.542z"/>
			<path fill="#FEFEFE" d="M66.635,35.057l-3.437-2.426l0.472-0.67l3.293,0.211l-2.295-1.627l0.461-0.643l3.434,2.426l-0.499,0.695
				l-3.228-0.21l2.257,1.601L66.635,35.057z"/>
			<path fill="#FFFFFF" stroke="#FFFFFF" stroke-width="0.723" stroke-miterlimit="22.926" d="M60.598,47.203
				c0.477,0,0.933,0.188,1.27,0.524c0.337,0.337,0.527,0.792,0.528,1.269c0,0.236-0.046,0.471-0.137,0.689s-0.223,0.417-0.39,0.584
				c-0.167,0.168-0.366,0.301-0.584,0.391c-0.219,0.09-0.453,0.137-0.689,0.137c-0.236,0-0.471-0.047-0.689-0.137
				c-0.219-0.09-0.417-0.223-0.584-0.391c-0.167-0.166-0.3-0.365-0.391-0.584c-0.09-0.219-0.137-0.453-0.137-0.689
				c0.001-0.477,0.192-0.934,0.53-1.27C59.663,47.39,60.121,47.201,60.598,47.203z"/>
			<path fill="#FFFFFF" d="M66.745,67.703c0.252-0.264,0.562-0.467,0.905-0.592c0.222-0.084,0.458-0.124,0.696-0.116
				c0.221-0.001,0.44,0.044,0.643,0.132c0.292,0.125,0.551,0.313,0.761,0.551c0.194,0.193,0.348,0.426,0.451,0.68
				c0.104,0.255,0.155,0.527,0.151,0.803c-0.063,0.586-0.35,1.127-0.8,1.508c-0.197,0.211-0.435,0.382-0.698,0.501
				c-0.263,0.12-0.548,0.186-0.837,0.194c-0.272-0.009-0.54-0.074-0.786-0.191c-0.246-0.117-0.465-0.285-0.643-0.49
				c-0.199-0.195-0.356-0.428-0.462-0.686c-0.106-0.256-0.159-0.533-0.155-0.811C66.024,68.609,66.302,68.076,66.745,67.703z
				 M67.361,68.334c-0.3,0.243-0.501,0.588-0.564,0.971c-0.016,0.156,0.003,0.316,0.056,0.465c0.052,0.15,0.136,0.286,0.246,0.4
				c0.104,0.121,0.235,0.217,0.383,0.278s0.309,0.087,0.468,0.075c0.394-0.033,0.76-0.217,1.023-0.512
				c0.293-0.246,0.497-0.582,0.578-0.957c0.011-0.162-0.014-0.326-0.072-0.478c-0.059-0.151-0.151-0.288-0.269-0.401
				c-0.101-0.119-0.228-0.213-0.372-0.275c-0.144-0.061-0.299-0.088-0.455-0.078C67.989,67.85,67.621,68.034,67.361,68.334z"/>
			<path fill="#FFFFFF" d="M113.092,70.964l-3.162-2.716l0.564-0.643l2.623,2.256l1.363-1.6l0.539,0.461L113.092,70.964z"/>
			<path fill="#FFFFFF" d="M71.708,75.116l2.136-3.634l1.55,0.908c0.292,0.154,0.553,0.357,0.774,0.604
				c0.137,0.166,0.211,0.376,0.21,0.592c0.018,0.234-0.042,0.467-0.17,0.664c-0.135,0.252-0.36,0.444-0.63,0.538
				c-0.304,0.07-0.622,0.038-0.905-0.093c0.1,0.166,0.171,0.348,0.21,0.538c0.038,0.274,0.06,0.55,0.066,0.827l0.026,0.971
				l-0.88-0.512l-0.054-1.1c-0.009-0.256-0.035-0.51-0.077-0.763c-0.019-0.102-0.064-0.196-0.131-0.275
				c-0.095-0.113-0.211-0.206-0.341-0.275l-0.158-0.079l-0.891,1.523L71.708,75.116z M73.675,73.463l0.551,0.314
				c0.208,0.146,0.438,0.258,0.683,0.33c0.091,0.016,0.186,0.011,0.275-0.014c0.107-0.055,0.194-0.142,0.249-0.248
				c0.07-0.1,0.098-0.223,0.079-0.342c-0.027-0.125-0.097-0.236-0.198-0.314c-0.053-0.04-0.236-0.158-0.527-0.33l-0.577-0.328
				L73.675,73.463z"/>
			<path fill="#FFFFFF" d="M109.752,74.066l-0.762,0.512l-0.838-0.604l-1.416,0.931l0.248,0.983l-0.76,0.499l-0.932-4.421
				l0.734-0.484L109.752,74.066z M107.535,73.539l-1.338-0.994l0.367,1.627L107.535,73.539z"/>
			<path fill="#FFFFFF" d="M79.127,78.792l1.246-4.026l0.81,0.248l-1.243,4.027L79.127,78.792z"/>
			<path fill="#FFFFFF" d="M98.961,79.468l-1.43-3.962l0.76-0.275l2.598,2.047l-0.957-2.65l0.746-0.263l1.434,3.962l-0.801,0.289
				l-2.559-2.021l0.943,2.598L98.961,79.468z"/>
			<path fill="#FFFFFF" d="M86.824,78.896l0.076-0.709l1.81,0.211l-0.198,1.665c-0.244,0.173-0.519,0.298-0.81,0.366
				c-0.342,0.092-0.698,0.119-1.049,0.08c-0.4-0.037-0.785-0.178-1.115-0.407c-0.283-0.228-0.5-0.526-0.63-0.866
				c-0.121-0.371-0.156-0.766-0.104-1.154c0.031-0.405,0.171-0.795,0.406-1.128c0.204-0.323,0.515-0.566,0.878-0.685
				c0.331-0.125,0.688-0.161,1.036-0.105c0.431,0.025,0.841,0.191,1.168,0.473c0.272,0.252,0.438,0.6,0.461,0.971l-0.866,0.056
				c-0.035-0.2-0.131-0.384-0.275-0.526c-0.163-0.141-0.367-0.223-0.581-0.234c-0.164-0.029-0.333-0.023-0.494,0.02
				c-0.161,0.043-0.311,0.121-0.438,0.229c-0.268,0.265-0.427,0.62-0.446,0.997c-0.074,0.402,0.001,0.816,0.211,1.167
				c0.096,0.132,0.219,0.242,0.362,0.321c0.143,0.08,0.301,0.127,0.464,0.14c0.186,0.021,0.373,0.003,0.551-0.053
				c0.165-0.042,0.323-0.104,0.472-0.184l0.066-0.538L86.824,78.896z"/>
			<path fill="#FFFFFF" d="M93.289,80.443l-0.486-4.184l0.84-0.105l0.484,4.185L93.289,80.443z"/>
			<path fill="#FFFFFF" d="M75.326,57.396v-13.09c0.005-0.254-0.058-0.504-0.182-0.727c-0.125-0.221-0.306-0.404-0.526-0.532
				c-0.561-0.324-1.202-0.483-1.85-0.462c-0.328-0.004-0.656,0.041-0.971,0.133c-0.285,0.08-0.555,0.203-0.8,0.367
				c-0.214,0.141-0.4,0.319-0.551,0.527c-0.134,0.207-0.207,0.447-0.21,0.695v13.088h-1.834V44.123
				c-0.008-0.438,0.116-0.866,0.354-1.232c0.221-0.389,0.537-0.713,0.918-0.945c0.42-0.27,0.879-0.473,1.362-0.603
				c0.567-0.136,1.148-0.202,1.731-0.198c1.124-0.063,2.239,0.217,3.201,0.801c0.372,0.267,0.67,0.623,0.867,1.036
				s0.287,0.868,0.26,1.325v13.09H75.326z"/>
			<path fill="#FFFFFF" d="M80.167,50.589v6.808h-1.834V44.346c-0.017-0.463,0.083-0.921,0.292-1.334
				c0.208-0.412,0.518-0.766,0.899-1.025c0.943-0.607,2.055-0.902,3.175-0.84c1.137-0.076,2.265,0.249,3.188,0.918
				c0.366,0.293,0.659,0.667,0.857,1.092c0.198,0.426,0.294,0.891,0.283,1.359v12.881h-1.77v-6.808H80.167z M85.256,44.307
				c0.004-0.251-0.074-0.496-0.224-0.696c-0.169-0.216-0.373-0.401-0.603-0.55c-0.264-0.153-0.546-0.271-0.84-0.355
				c-0.291-0.076-0.591-0.116-0.892-0.117c-0.306,0-0.61,0.039-0.905,0.117c-0.289,0.086-0.566,0.205-0.827,0.355
				c-0.222,0.145-0.413,0.332-0.563,0.55c-0.153,0.2-0.236,0.444-0.236,0.696v4.668h5.089V44.307z"/>
			<path fill="#FFFFFF" d="M93.992,57.396V44.254c0.02-0.24-0.023-0.48-0.121-0.701c-0.1-0.22-0.25-0.412-0.441-0.559
				c-0.416-0.276-0.906-0.418-1.404-0.406c-0.504-0.023-1.002,0.119-1.417,0.406c-0.195,0.145-0.351,0.335-0.452,0.555
				c-0.101,0.221-0.144,0.463-0.125,0.705v13.143h-1.769V44.188c-0.04-0.44,0.03-0.885,0.204-1.291
				c0.173-0.408,0.445-0.766,0.791-1.043c0.8-0.52,1.747-0.769,2.7-0.708c0.619-0.012,1.232,0.095,1.811,0.314
				c0.48,0.194,0.881,0.54,1.143,0.987c0.271-0.454,0.688-0.803,1.182-0.988c0.582-0.222,1.199-0.328,1.822-0.314
				c0.945-0.059,1.887,0.18,2.689,0.682c0.332,0.292,0.59,0.658,0.754,1.068s0.229,0.854,0.191,1.293v13.209h-1.771V44.254
				c0.018-0.238-0.023-0.479-0.119-0.697c-0.096-0.221-0.244-0.412-0.432-0.563c-0.426-0.283-0.932-0.426-1.443-0.406
				c-0.49-0.012-0.973,0.131-1.377,0.406c-0.197,0.143-0.355,0.333-0.459,0.553c-0.104,0.221-0.15,0.464-0.135,0.707v13.143H93.992z
				"/>
			<path fill="#FFFFFF" d="M104.592,50.589v6.808h-1.834V44.346c-0.018-0.463,0.082-0.921,0.291-1.334
				c0.209-0.412,0.518-0.766,0.9-1.025c0.943-0.607,2.055-0.902,3.174-0.84c1.137-0.076,2.266,0.249,3.188,0.918
				c0.365,0.293,0.66,0.667,0.857,1.092c0.197,0.426,0.295,0.891,0.283,1.359v12.881h-1.771v-6.808H104.592z M109.68,44.307
				c0.006-0.251-0.072-0.496-0.223-0.696c-0.17-0.216-0.373-0.401-0.604-0.55c-0.264-0.153-0.545-0.271-0.84-0.355
				c-0.291-0.076-0.59-0.116-0.891-0.117c-0.307,0-0.609,0.039-0.906,0.117c-0.287,0.086-0.564,0.205-0.826,0.355
				c-0.221,0.145-0.412,0.332-0.563,0.55c-0.154,0.2-0.236,0.444-0.236,0.696v4.668h5.088V44.307z"/>
			<path fill="#FFFFFF" stroke="#FFFFFF" stroke-width="0.723" stroke-miterlimit="22.926" d="M118.713,47.203
				c0.236-0.001,0.471,0.045,0.689,0.135c0.219,0.091,0.416,0.223,0.584,0.391c0.166,0.166,0.299,0.364,0.391,0.582
				c0.09,0.219,0.137,0.452,0.137,0.688s-0.045,0.471-0.137,0.689c-0.09,0.218-0.223,0.417-0.391,0.584
				c-0.166,0.167-0.365,0.3-0.584,0.391s-0.453,0.137-0.689,0.137s-0.471-0.046-0.688-0.138c-0.219-0.09-0.418-0.223-0.586-0.39
				c-0.166-0.167-0.299-0.366-0.389-0.585c-0.092-0.218-0.137-0.452-0.137-0.688s0.047-0.47,0.137-0.688
				c0.09-0.218,0.223-0.416,0.391-0.582c0.168-0.168,0.365-0.3,0.584-0.391C118.244,47.248,118.477,47.202,118.713,47.203z"/>
			<path fill="#FFFFFF" d="M109.57,40.219c0.605,0.313,1.186,0.674,1.734,1.082c0.475,0.352,0.893,0.775,1.236,1.256
				c0.238,0.334,0.387,0.724,0.432,1.131c0.6-0.049,1.197-0.094,1.797-0.141c-0.063-0.719-0.314-1.408-0.73-2
				c-0.453-0.643-1.006-1.208-1.639-1.676c-0.631-0.471-1.297-0.889-1.994-1.251c-1.074-0.554-2.191-1.021-3.342-1.397
				c-5.529-1.77-10.934-2.266-16.721-2.354c-5.867,0.043-11.313,0.526-16.908,2.377c-1.854,0.566-3.595,1.453-5.142,2.623
				c-0.557,0.434-1.028,0.967-1.391,1.571c-0.125,0.235-0.62,1.456-0.374,1.669c0.03-0.02,0.511-1.305,0.643-1.502
				c0.395-0.525,0.874-0.982,1.416-1.354c1.57-1.004,3.286-1.761,5.086-2.244c5.588-1.504,10.877-1.826,16.646-1.721
				c5.625,0.227,10.816,0.822,16.164,2.635C107.539,39.29,108.57,39.723,109.57,40.219z"/>
			<path fill="#FFFFFF" d="M70.711,60.414c-0.618-0.29-1.21-0.631-1.77-1.021c-0.489-0.332-0.923-0.739-1.285-1.207
				c-0.248-0.327-0.409-0.71-0.47-1.115c-0.6,0.065-1.197,0.138-1.794,0.203c0.09,0.718,0.369,1.399,0.807,1.976
				c0.476,0.625,1.049,1.171,1.696,1.617c0.646,0.448,1.329,0.842,2.042,1.177c1.094,0.515,2.228,0.941,3.391,1.275
				c5.588,1.571,11.011,1.868,16.795,1.748c5.862-0.257,11.29-0.933,16.813-2.987c1.832-0.633,3.537-1.582,5.039-2.807
				c0.543-0.452,0.996-1.002,1.336-1.619c0.117-0.243,0.566-1.48,0.311-1.686c-0.025,0.021-0.461,1.324-0.586,1.523
				c-0.375,0.541-0.836,1.016-1.363,1.408c-1.535,1.059-3.225,1.877-5.006,2.426c-5.529,1.705-10.807,2.22-16.575,2.321
				c-5.627-0.022-10.834-0.433-16.245-2.046c-1.068-0.328-2.115-0.725-3.133-1.186"/>
		</g>
	</g>
</g>
</svg>
