<svg width="100" height="100" viewBox="0 0 100 100" fill="none" xmlns="http://www.w3.org/2000/svg">
<path d="M40.0333 65.2782C37.7604 63.2846 35.5644 62.0952 34.7796 61.7002L26.5558 52.2436C25.7169 51.279 24.6282 50.6522 23.4661 50.3733V37.2354C23.4661 34.1374 20.9456 31.617 17.8477 31.617C15.7038 31.617 13.8372 32.8245 12.8903 34.5946L12.8661 34.5083C11.9095 31.1042 8.4663 29.0838 5.02743 29.9071C1.5538 30.7393 -0.628622 34.2502 0.162198 37.7333L5.03232 59.1836C5.84638 62.7688 7.25243 66.1641 9.212 69.275L13.3729 75.8813C13.8077 76.5729 14.7216 76.7694 15.3972 76.3411C16.0831 75.909 16.289 75.0028 15.8569 74.317L11.6958 67.711C9.91396 64.8821 8.63525 61.7944 7.89501 58.534L3.0247 37.0836C2.58798 35.1602 3.79325 33.2215 5.71122 32.762C7.61103 32.3069 9.51161 33.4231 10.0399 35.3028L16.2796 57.5024C16.2819 57.5106 16.2852 57.5182 16.2876 57.5264C16.4958 58.4077 16.9069 59.2536 17.53 59.9893L25.5386 69.4442C26.0622 70.0625 26.9884 70.1395 27.6071 69.6157C28.2257 69.0917 28.3024 68.1657 27.7786 67.5471L19.7702 58.092C18.702 56.8311 18.8548 54.9315 20.1108 53.8575C21.3626 52.787 23.2599 52.9274 24.3405 54.1698L32.7603 63.8518C32.8962 64.0081 33.0657 64.1348 33.2536 64.2217C33.3479 64.2653 42.6853 68.6745 43.4013 76.9235C43.6899 80.2504 42.6364 83.0653 41.7019 84.8407C40.571 86.9891 39.9731 89.4157 39.9731 91.8583V97.0645H23.4114V91.1329C23.4114 87.9794 22.5229 84.9018 20.8423 82.2333L18.9858 79.2858C18.554 78.6 17.6477 78.3942 16.9616 78.826C16.2757 79.2581 16.0698 80.1643 16.5019 80.8501L18.3583 83.7975C19.7435 85.9969 20.4757 88.5335 20.4757 91.1327V98.5321C20.4757 99.3426 21.1329 99.9999 21.9435 99.9999H41.4407C42.2513 99.9999 42.9085 99.3426 42.9085 98.5321V91.8581C42.9085 89.8899 43.3894 87.936 44.2993 86.2077C45.4171 84.0844 46.6759 80.7059 46.3257 76.6694C45.9649 72.5116 43.789 68.5725 40.0333 65.2782ZM18.2028 51.6266C18.0565 51.7516 17.9186 51.8827 17.7876 52.0186L15.1645 42.6866V37.2356C15.1645 35.7563 16.3681 34.5528 17.8476 34.5528C19.3268 34.5528 20.5304 35.7563 20.5304 37.2356V50.4047C19.6964 50.6254 18.8991 51.0311 18.2028 51.6266Z" fill="#235032"/>
<path d="M94.9727 29.9072C91.5329 29.0828 88.0909 31.1043 87.1339 34.5084L87.1097 34.5945C86.1628 32.8244 84.2962 31.6172 82.1524 31.6172C79.0544 31.6172 76.5341 34.1375 76.5341 37.2355V50.3734C75.372 50.6521 74.2835 51.2789 73.4444 52.2435L65.2206 61.7002C64.4356 62.0949 62.2395 63.2846 59.9669 65.2781C56.211 68.5723 54.0353 72.5115 53.6745 76.6697C53.3239 80.7062 54.5829 84.0848 55.7007 86.208C56.6106 87.9363 57.0915 89.8902 57.0915 91.8584V98.5324C57.0915 99.343 57.7485 100 58.5593 100H78.0567C78.8675 100 79.5245 99.343 79.5245 98.5324V91.1328C79.5245 88.5334 80.2567 85.9969 81.6419 83.7977L90.7886 69.2754C92.7481 66.1644 94.1542 62.7691 94.9683 59.184L95.9645 54.7961C96.144 54.0057 95.6489 53.2193 94.8581 53.0398C94.0685 52.8601 93.2813 53.3559 93.1019 54.1461L92.1056 58.534C91.3651 61.7945 90.0864 64.882 88.3044 67.7109L79.1577 82.2334C77.4772 84.9018 76.589 87.9791 76.589 91.1328V97.0644H60.027V91.8582C60.027 89.4154 59.4292 86.9889 58.2983 84.8406C57.3636 83.0652 56.3102 80.2506 56.5989 76.9234C57.3147 68.6744 66.6522 64.2652 66.7444 64.2225C66.9341 64.1355 67.103 64.009 67.2397 63.8516L75.6595 54.1695C76.7403 52.9266 78.6374 52.7869 79.8892 53.8572C81.145 54.9312 81.2979 56.8309 80.23 58.0918L72.2214 67.5467C71.6974 68.1652 71.7741 69.0914 72.3927 69.6154C73.0116 70.1394 73.9374 70.0625 74.4612 69.4441L82.47 59.9891C83.0946 59.2516 83.506 58.4033 83.7138 57.5197C83.7155 57.5137 83.7187 57.5084 83.7202 57.5023L89.9597 35.3027C90.4884 33.423 92.3901 32.3076 94.2886 32.7619C96.2065 33.2215 97.412 35.1601 96.9753 37.0836L94.4015 48.4195C94.222 49.2101 94.7173 49.9963 95.5079 50.1758C96.2977 50.3551 97.0847 49.86 97.264 49.0695L99.8378 37.7336C100.629 34.2504 98.4462 30.7394 94.9727 29.9072ZM79.4694 50.4047V37.2355C79.4694 35.7562 80.6729 34.5527 82.1522 34.5527C83.6317 34.5527 84.8351 35.7562 84.8351 37.2355V42.6861L82.212 52.0184C81.4661 51.2357 80.4733 50.665 79.4694 50.4047Z" fill="#235032"/>
<path d="M75.4046 29.4137C78.2515 24.484 79.3537 19.4893 78.6804 14.5686C78.0804 10.1836 76.2892 6.51953 73.5 3.97207C71.0234 1.71054 67.8449 0.357809 64.3085 0.060543C60.9683 -0.220121 57.5648 0.481246 54.7232 2.03535C52.7492 3.11484 51.1378 4.56621 49.9999 6.25996C48.8621 4.56621 47.2507 3.11484 45.2769 2.03535C42.4351 0.481246 39.031 -0.220121 35.6915 0.060543C32.155 0.357809 28.9767 1.71054 26.5001 3.97207C23.7109 6.51953 21.9193 10.1838 21.3195 14.5686C21.0271 16.7049 21.0701 18.8803 21.447 21.0342C21.5869 21.8326 22.3476 22.3672 23.1458 22.2268C23.9443 22.0869 24.4783 21.3264 24.3384 20.5279C24.0136 18.6732 23.9765 16.8021 24.2277 14.9664C25.1806 8.00058 29.558 3.52187 35.9372 2.98554C41.7414 2.49785 47.1861 5.52968 48.5992 10.0387C48.973 11.385 51.0267 11.3846 51.4003 10.0387C52.8132 5.52968 58.2556 2.49726 64.0622 2.98554C70.4415 3.52187 74.8187 8.00058 75.7716 14.9664C76.3533 19.2182 75.3792 23.5764 72.8771 27.9201C70.8234 31.485 67.7464 35.0492 63.732 38.5139C57.9947 43.4654 51.947 46.8008 50.0003 47.8193C46.6841 46.0803 31.4531 37.5918 26.0078 25.7707C25.6687 25.0346 24.797 24.7123 24.0607 25.0518C23.3244 25.3908 23.0025 26.2627 23.3415 26.9988C26.0988 32.9848 31.3232 38.8113 38.8695 44.3166C44.4431 48.3828 49.1597 50.6914 49.3578 50.7877C49.7628 50.9848 50.2361 50.9848 50.6414 50.7877C50.9544 50.6355 58.3908 46.9891 65.6033 40.7766C69.8802 37.0926 73.1779 33.2695 75.4046 29.4137Z" fill="#235032"/>
</svg>
