<svg width="28" height="27" viewBox="0 0 28 27" fill="none" xmlns="http://www.w3.org/2000/svg">
<path d="M24.3125 0.625H3.6875C2.10547 0.625 0.875 1.91406 0.875 3.4375V24.0625C0.875 25.6445 2.10547 26.875 3.6875 26.875H11.7148V17.9688H8.02344V13.75H11.7148V10.5859C11.7148 6.95312 13.8828 4.90234 17.1641 4.90234C18.8047 4.90234 20.4453 5.19531 20.4453 5.19531V8.76953H18.6289C16.8125 8.76953 16.2266 9.88281 16.2266 11.0547V13.75H20.2695L19.625 17.9688H16.2266V26.875H24.3125C25.8359 26.875 27.125 25.6445 27.125 24.0625V3.4375C27.125 1.91406 25.8359 0.625 24.3125 0.625Z" fill="white"/>
</svg>
